SplineFontDB: 3.2
FontName: Sahel-Bold
FullName: Sahel Bold
FamilyName: Sahel
Weight: Bold
Copyright: Copyright (c) 2016 by Saber Rastikerdar. All Rights Reserved.\nBased on DejaVu font.\nNon-Arabic(Latin) glyphs and data are imported from Open Sans font under the Apache License, Version 2.0.
Version: 3.4.0
ItalicAngle: 0
UnderlinePosition: -500
UnderlineWidth: 100
Ascent: 1638
Descent: 410
InvalidEm: 0
LayerCount: 2
Layer: 0 0 "Back" 1
Layer: 1 0 "Fore" 0
PreferredKerning: 4
XUID: [1021 502 1027637223 12091953]
UniqueID: 4085171
UseUniqueID: 1
FSType: 0
OS2Version: 1
OS2_WeightWidthSlopeOnly: 0
OS2_UseTypoMetrics: 1
CreationTime: 1431850356
ModificationTime: 1582306736
PfmFamily: 33
TTFWeight: 700
TTFWidth: 5
LineGap: 0
VLineGap: 0
Panose: 2 11 6 3 3 8 4 2 2 4
OS2TypoAscent: 2200
OS2TypoAOffset: 0
OS2TypoDescent: -1000
OS2TypoDOffset: 0
OS2TypoLinegap: 0
OS2WinAscent: 2200
OS2WinAOffset: 0
OS2WinDescent: 1000
OS2WinDOffset: 0
HheadAscent: 2200
HheadAOffset: 0
HheadDescent: -1000
HheadDOffset: 0
OS2SubXSize: 1331
OS2SubYSize: 1433
OS2SubXOff: 0
OS2SubYOff: 286
OS2SupXSize: 1331
OS2SupYSize: 1433
OS2SupXOff: 0
OS2SupYOff: 983
OS2StrikeYSize: 102
OS2StrikeYPos: 530
OS2CapHeight: 1638
OS2XHeight: 1082
OS2Vendor: '    '
OS2CodePages: 00000041.20080000
OS2UnicodeRanges: 80002003.80000000.00000008.00000000
Lookup: 1 9 0 "Single Substitution 1" { "Single Substitution 1 subtable"  } []
Lookup: 1 9 0 "'fina' Terminal Forms in Arabic lookup 9" { "'fina' Terminal Forms in Arabic lookup 9 subtable"  } ['fina' ('DFLT' <'dflt' > 'arab' <'FAR ' 'KUR ' 'URD ' 'dflt' > ) ]
Lookup: 1 9 0 "'medi' Medial Forms in Arabic lookup 11" { "'medi' Medial Forms in Arabic lookup 11 subtable"  } ['medi' ('DFLT' <'dflt' > 'arab' <'FAR ' 'KUR ' 'URD ' 'dflt' > ) ]
Lookup: 1 9 0 "'init' Initial Forms in Arabic lookup 13" { "'init' Initial Forms in Arabic lookup 13 subtable"  } ['init' ('DFLT' <'dflt' > 'arab' <'FAR ' 'KUR ' 'URD ' 'dflt' > ) ]

StartChar: exclam
Encoding: 33 33 1
GlifName: exclam
Width: 588
GlyphClass: 2
Flags: HW
LayerCount: 2
Fore
SplineSet
388 632 m 258
 383 582 374 558 341 558 c 258
 255 558 l 258
 220 558 209 583 204 633 c 258
 124 1287 l 258
 122 1301 121 1315 121 1328 c 256
 121 1434 176 1486 284 1486 c 258
 313 1486 l 258
 412 1486 461 1433 461 1326 c 256
 461 1314 461 1301 460 1287 c 258
 388 632 l 258
294.974609375 0.875 m 260
 191.424804688 0.875 106.875 85.4248046875 106.875 188.974609375 c 260
 106.875 291.575195312 191.424804688 376.125 294.974609375 376.125 c 260
 397.575195312 376.125 482.125 291.575195312 482.125 188.974609375 c 260
 482.125 85.4248046875 397.575195312 0.875 294.974609375 0.875 c 260
EndSplineSet
EndChar

StartChar: period
Encoding: 46 46 2
GlifName: period
Width: 588
GlyphClass: 2
Flags: HW
LayerCount: 2
Fore
SplineSet
294 0.875 m 256
 190.450195312 0.875 105.900390625 85.4248046875 105.900390625 188.974609375 c 256
 105.900390625 291.575195312 190.450195312 376.125 294 376.125 c 256
 397.549804688 376.125 482.099609375 291.575195312 482.099609375 188.974609375 c 256
 482.099609375 85.4248046875 397.549804688 0.875 294 0.875 c 256
EndSplineSet
EndChar

StartChar: colon
Encoding: 58 58 3
GlifName: colon
Width: 588
GlyphClass: 2
Flags: HW
LayerCount: 2
Fore
SplineSet
294.025390625 595.875 m 260
 190.474609375 595.875 106.875 680.424804688 106.875 783.974609375 c 260
 106.875 886.575195312 190.474609375 971.125 294.025390625 971.125 c 260
 397.575195312 971.125 482.125 886.575195312 482.125 783.974609375 c 260
 482.125 680.424804688 397.575195312 595.875 294.025390625 595.875 c 260
294.025390625 0.875 m 256
 190.474609375 0.875 106.875 85.4248046875 106.875 188.974609375 c 256
 106.875 291.575195312 190.474609375 376.125 294.025390625 376.125 c 256
 397.575195312 376.125 482.125 291.575195312 482.125 188.974609375 c 256
 482.125 85.4248046875 397.575195312 0.875 294.025390625 0.875 c 256
EndSplineSet
EndChar

StartChar: uni060C
Encoding: 1548 1548 5
GlifName: afii57388
Width: 588
GlyphClass: 2
Flags: HW
LayerCount: 2
Fore
SplineSet
295.205078125 0.91015625 m 0
 172.83984375 0.91015625 108.259765625 101.879882812 108.259765625 203.849609375 c 0
 108.259765625 488.233398438 283.134765625 692.173828125 432.69140625 751.08984375 c 4
 500.670898438 778.28125 556.188476562 751.08984375 492.740234375 703.50390625 c 4
 381.706054688 619.661132812 311.06640625 488.233398438 309.93359375 370.401367188 c 1
 448.16015625 361.337890625 479.883789062 255.96875 479.883789062 189.12109375 c 0
 479.883789062 93.9501953125 413.036132812 0.91015625 295.205078125 0.91015625 c 0
EndSplineSet
EndChar

StartChar: uni0615
Encoding: 1557 1557 6
GlifName: uni0615
Width: 0
GlyphClass: 4
Flags: HW
AnchorPoint: "Anchor-10" 702 1946 mark 0
AnchorPoint: "Anchor-9" 702 1946 mark 0
AnchorPoint: "Anchor-1" 554 2839 basemark 0
AnchorPoint: "Anchor-1" 702 1946 mark 0
LayerCount: 2
Fore
SplineSet
998 2475 m 4
 1109 2475 1170 2406 1170 2284 c 4
 1170 2080 967 2018 727 2018 c 6
 420 2018 l 5
 367 2118 l 5
 504 2118 l 5
 504 2789 l 5
 606 2789 l 5
 606 2169 l 5
 747 2373 878 2475 998 2475 c 4
1070 2274 m 4
 1070 2330 1045 2358 996 2358 c 4
 915 2358 808 2278 676 2118 c 5
 778 2118 l 6
 931 2118 1070 2150 1070 2274 c 4
EndSplineSet
EndChar

StartChar: uni061B
Encoding: 1563 1563 7
GlifName: uni061B_
Width: 588
GlyphClass: 2
Flags: HW
LayerCount: 2
Fore
SplineSet
295.205078125 556.91015625 m 0
 172.83984375 556.91015625 108.259765625 657.879882812 108.259765625 759.849609375 c 0
 108.259765625 1044.23339844 283.134765625 1248.17382812 432.69140625 1307.08984375 c 4
 500.670898438 1334.28125 556.188476562 1307.08984375 492.740234375 1259.50390625 c 4
 381.706054688 1175.66113281 311.06640625 1044.23339844 309.93359375 926.401367188 c 1
 448.16015625 917.337890625 479.883789062 811.96875 479.883789062 745.12109375 c 0
 479.883789062 649.950195312 413.036132812 556.91015625 295.205078125 556.91015625 c 0
294.974609375 0.875 m 256
 191.424804688 0.875 106.875 85.4248046875 106.875 188.974609375 c 256
 106.875 291.575195312 191.424804688 376.125 294.974609375 376.125 c 256
 397.575195312 376.125 482.125 291.575195312 482.125 188.974609375 c 256
 482.125 85.4248046875 397.575195312 0.875 294.974609375 0.875 c 256
EndSplineSet
EndChar

StartChar: uni061F
Encoding: 1567 1567 8
GlifName: uni061F_
Width: 964
GlyphClass: 2
Flags: HW
LayerCount: 2
Fore
SplineSet
569.974609375 0.875 m 260
 467.375 0.875 381.875 85.4248046875 381.875 188.974609375 c 260
 381.875 291.575195312 467.375 376.125 569.974609375 376.125 c 260
 673.525390625 376.125 757.125 291.575195312 757.125 188.974609375 c 260
 757.125 85.4248046875 673.525390625 0.875 569.974609375 0.875 c 260
526 1197 m 256
 421 1197 347 1150 347 1050 c 256
 347 1005 389 951 473 883 c 257
 523 844 l 258
 624 764 674 681 674 593 c 258
 674 582 l 258
 674 566 661 558 634 558 c 258
 513 558 l 258
 481 558 464 566 464 581 c 258
 464 592 l 258
 464 616 414 666 312 739 c 257
 221 803 l 258
 109 882 54 976 54 1088 c 256
 54 1325 236 1487 485 1487 c 257
 719 1486 898 1331 898 1080 c 256
 898 1044 897 1013 894 989 c 257
 750 989 l 257
 738 1127 666 1197 526 1197 c 256
EndSplineSet
EndChar

StartChar: uni0621
Encoding: 1569 1569 9
GlifName: uni0621
Width: 835
GlyphClass: 2
Flags: HW
AnchorPoint: "Anchor-7" 483.07 -27.1553 basechar 0
AnchorPoint: "Anchor-10" 421.311 1067.39 basechar 0
LayerCount: 2
Fore
SplineSet
746.97265625 353.344726562 m 261
 728.373046875 161.764648438 l 261
 492.15234375 130.14453125 302.432617188 71.5546875 91.3232421875 -14.9345703125 c 261
 89.462890625 231.514648438 l 261
 221.522460938 271.504882812 l 261
 173.163085938 325.4453125 143.40234375 384.96484375 143.40234375 459.365234375 c 260
 143.40234375 647.224609375 266.163085938 783.934570312 449.373046875 783.934570312 c 260
 538.65234375 783.934570312 632.583007812 749.525390625 689.3125 694.655273438 c 261
 644.672851562 529.115234375 l 261
 591.663085938 555.155273438 527.493164062 568.174804688 477.272460938 568.174804688 c 260
 382.413085938 568.174804688 317.3125 516.094726562 310.802734375 463.084960938 c 261
 310.802734375 423.094726562 415.892578125 351.485351562 457.743164062 341.254882812 c 261
 480.993164062 342.184570312 526.5625 353.344726562 579.573242188 367.294921875 c 262
 683.732421875 394.264648438 l 262
 736.743164062 408.21484375 750.692382812 404.495117188 746.97265625 353.344726562 c 261
EndSplineSet
EndChar

StartChar: uni0627
Encoding: 1575 1575 15
GlifName: uni0627
Width: 482
GlyphClass: 2
Flags: HW
AnchorPoint: "Anchor-10" 190 1560 basechar 0
AnchorPoint: "Anchor-7" 218 -216 basechar 0
LayerCount: 2
Fore
SplineSet
61 1323 m 257
 300 1480 l 257
 343 1509 358 1507 361 1451 c 256
 375 1147 381 913 381 746 c 256
 381 349 363 129 328 68 c 256
 294 10 234 -4 143 -5 c 257
 142 450 132 898 61 1323 c 257
EndSplineSet
Substitution2: "'fina' Terminal Forms in Arabic lookup 9 subtable" uniFE8E
EndChar

StartChar: uni062D
Encoding: 1581 1581 21
GlifName: uni062D_
Width: 1321
GlyphClass: 2
Flags: HW
AnchorPoint: "Anchor-10" 662 1200 basechar 0
AnchorPoint: "Anchor-7" 707 -851 basechar 0
LayerCount: 2
Fore
SplineSet
750 -387 m 256
 920 -387 1054 -374 1178 -355 c 256
 1231 -347 1220 -390 1200 -426 c 258
 1108 -590 l 258
 1074 -651 1024 -684 958 -690 c 256
 902 -696 837 -698 762 -698 c 257
 346 -698 119 -535 119 -128 c 256
 119 218 320 461 686 587 c 257
 577 609 445 637 397 637 c 256
 332 637 266 597 198 516 c 257
 78 579 l 257
 144 782 241 937 405 937 c 256
 465 937 592 909 822 836 c 257
 933 799 1076 758 1226 758 c 256
 1245 758 1254 754 1250 741 c 258
 1159 445 l 257
 777 382 292 220 292 -107 c 256
 292 -295 452 -387 750 -387 c 256
EndSplineSet
Substitution2: "'fina' Terminal Forms in Arabic lookup 9 subtable" uniFEA2
Substitution2: "'medi' Medial Forms in Arabic lookup 11 subtable" uniFEA4
Substitution2: "'init' Initial Forms in Arabic lookup 13 subtable" uniFEA3
EndChar

StartChar: uni062F
Encoding: 1583 1583 23
GlifName: uni062F_
Width: 1030
GlyphClass: 2
Flags: HW
AnchorPoint: "Anchor-7" 416 -217 basechar 0
AnchorPoint: "Anchor-10" 461 1336 basechar 0
LayerCount: 2
Fore
SplineSet
245 498 m 257
 244 494 244 477 246 459 c 256
 252 391 326 371 449 371 c 256
 651 371 761 405 761 449 c 260
 761 530 522 712 336 834 c 257
 442 1101 l 258
 455 1134 476 1130 503 1109 c 256
 782 898 941 690 941 435 c 256
 941 150 771 1 440 1 c 256
 201 1 79 110 79 329 c 256
 79 377 88 438 109 511 c 257
 245 498 l 257
EndSplineSet
PairPos2: "'kern' Horizontal Kerning lookup 0 subtable 4" uniFB90 dx=-120 dy=0 dh=-120 dv=0 dx=0 dy=0 dh=0 dv=0
PairPos2: "'kern' Horizontal Kerning lookup 0 subtable 4" uni06A9 dx=-120 dy=0 dh=-120 dv=0 dx=0 dy=0 dh=0 dv=0
PairPos2: "'kern' Horizontal Kerning lookup 0 subtable 4" uniFB94 dx=-120 dy=0 dh=-120 dv=0 dx=0 dy=0 dh=0 dv=0
PairPos2: "'kern' Horizontal Kerning lookup 0 subtable 4" uni06AF dx=-120 dy=0 dh=-120 dv=0 dx=0 dy=0 dh=0 dv=0
Substitution2: "'fina' Terminal Forms in Arabic lookup 9 subtable" uniFEAA
EndChar

StartChar: uni0631
Encoding: 1585 1585 25
GlifName: uni0631
Width: 781
GlyphClass: 2
Flags: HW
AnchorPoint: "Anchor-7" 362 -652 basechar 0
AnchorPoint: "Anchor-10" 477 996.7 basechar 0
LayerCount: 2
Fore
SplineSet
521 685 m 257
 574 626 711 446 711 143 c 256
 711 -211 477 -443 299 -533 c 256
 255.08984375 -555.202148438 185.51171875 -545.153320312 138 -519 c 258
 29 -459 l 258
 -114.887695312 -379.795898438 -37 -365 31 -337 c 256
 296.311523438 -227.75390625 521 -42 521 91 c 256
 521 141 449 246 321 403 c 257
 521 685 l 257
EndSplineSet
PairPos2: "'kern' Horizontal Kerning lookup 0 subtable 3" uni06C0 dx=-128 dy=0 dh=-128 dv=0 dx=0 dy=0 dh=0 dv=0
PairPos2: "'kern' Horizontal Kerning lookup 0 subtable 3" uni0621 dx=-128 dy=0 dh=-128 dv=0 dx=0 dy=0 dh=0 dv=0
PairPos2: "'kern' Horizontal Kerning lookup 0 subtable 2" uni0648 dx=-43 dy=0 dh=-43 dv=0 dx=0 dy=0 dh=0 dv=0
PairPos2: "'kern' Horizontal Kerning lookup 0 subtable 0" uniFB58 dx=20 dy=0 dh=20 dv=0 dx=0 dy=0 dh=0 dv=0
PairPos2: "'kern' Horizontal Kerning lookup 0 subtable 0" uni0632 dx=-43 dy=0 dh=-43 dv=0 dx=0 dy=0 dh=0 dv=0
PairPos2: "'kern' Horizontal Kerning lookup 0 subtable 0" uni0631 dx=-43 dy=0 dh=-43 dv=0 dx=0 dy=0 dh=0 dv=0
PairPos2: "'kern' Horizontal Kerning lookup 0 subtable 0" uni06CC dx=-43 dy=0 dh=-43 dv=0 dx=0 dy=0 dh=0 dv=0
PairPos2: "'kern' Horizontal Kerning lookup 0 subtable 0" uniFEEB dx=-128 dy=0 dh=-128 dv=0 dx=0 dy=0 dh=0 dv=0
PairPos2: "'kern' Horizontal Kerning lookup 0 subtable 0" uniFB7C dx=-115 dy=0 dh=-115 dv=0 dx=0 dy=0 dh=0 dv=0
PairPos2: "'kern' Horizontal Kerning lookup 0 subtable 0" uniFEDF dx=-128 dy=0 dh=-128 dv=0 dx=0 dy=0 dh=0 dv=0
PairPos2: "'kern' Horizontal Kerning lookup 0 subtable 0" uniFB90 dx=-213 dy=0 dh=-213 dv=0 dx=0 dy=0 dh=0 dv=0
PairPos2: "'kern' Horizontal Kerning lookup 0 subtable 0" uni06A9 dx=-213 dy=0 dh=-213 dv=0 dx=0 dy=0 dh=0 dv=0
PairPos2: "'kern' Horizontal Kerning lookup 0 subtable 0" uni0649 dx=-43 dy=0 dh=-43 dv=0 dx=0 dy=0 dh=0 dv=0
PairPos2: "'kern' Horizontal Kerning lookup 0 subtable 0" uni0647 dx=-128 dy=0 dh=-128 dv=0 dx=0 dy=0 dh=0 dv=0
PairPos2: "'kern' Horizontal Kerning lookup 0 subtable 0" uniFEE7 dx=-128 dy=0 dh=-128 dv=0 dx=0 dy=0 dh=0 dv=0
PairPos2: "'kern' Horizontal Kerning lookup 0 subtable 0" uniFEE3 dx=-128 dy=0 dh=-128 dv=0 dx=0 dy=0 dh=0 dv=0
PairPos2: "'kern' Horizontal Kerning lookup 0 subtable 0" uni0645 dx=-128 dy=0 dh=-128 dv=0 dx=0 dy=0 dh=0 dv=0
PairPos2: "'kern' Horizontal Kerning lookup 0 subtable 0" uni0644 dx=-43 dy=0 dh=-43 dv=0 dx=0 dy=0 dh=0 dv=0
PairPos2: "'kern' Horizontal Kerning lookup 0 subtable 0" uniFEDB dx=-213 dy=0 dh=-213 dv=0 dx=0 dy=0 dh=0 dv=0
PairPos2: "'kern' Horizontal Kerning lookup 0 subtable 0" uniFED7 dx=-128 dy=0 dh=-128 dv=0 dx=0 dy=0 dh=0 dv=0
PairPos2: "'kern' Horizontal Kerning lookup 0 subtable 0" uni0642 dx=-43 dy=0 dh=-43 dv=0 dx=0 dy=0 dh=0 dv=0
PairPos2: "'kern' Horizontal Kerning lookup 0 subtable 0" uniFED3 dx=-128 dy=0 dh=-128 dv=0 dx=0 dy=0 dh=0 dv=0
PairPos2: "'kern' Horizontal Kerning lookup 0 subtable 0" uni0641 dx=-128 dy=0 dh=-128 dv=0 dx=0 dy=0 dh=0 dv=0
PairPos2: "'kern' Horizontal Kerning lookup 0 subtable 0" uniFECF dx=-128 dy=0 dh=-128 dv=0 dx=0 dy=0 dh=0 dv=0
PairPos2: "'kern' Horizontal Kerning lookup 0 subtable 0" uniFECB dx=-128 dy=0 dh=-128 dv=0 dx=0 dy=0 dh=0 dv=0
PairPos2: "'kern' Horizontal Kerning lookup 0 subtable 0" uniFEC7 dx=-128 dy=0 dh=-128 dv=0 dx=0 dy=0 dh=0 dv=0
PairPos2: "'kern' Horizontal Kerning lookup 0 subtable 0" uni0638 dx=-128 dy=0 dh=-128 dv=0 dx=0 dy=0 dh=0 dv=0
PairPos2: "'kern' Horizontal Kerning lookup 0 subtable 0" uniFEC3 dx=-128 dy=0 dh=-128 dv=0 dx=0 dy=0 dh=0 dv=0
PairPos2: "'kern' Horizontal Kerning lookup 0 subtable 0" uni0637 dx=-128 dy=0 dh=-128 dv=0 dx=0 dy=0 dh=0 dv=0
PairPos2: "'kern' Horizontal Kerning lookup 0 subtable 0" uniFEBF dx=-128 dy=0 dh=-128 dv=0 dx=0 dy=0 dh=0 dv=0
PairPos2: "'kern' Horizontal Kerning lookup 0 subtable 0" uni0636 dx=-128 dy=0 dh=-128 dv=0 dx=0 dy=0 dh=0 dv=0
PairPos2: "'kern' Horizontal Kerning lookup 0 subtable 0" uniFEBB dx=-128 dy=0 dh=-128 dv=0 dx=0 dy=0 dh=0 dv=0
PairPos2: "'kern' Horizontal Kerning lookup 0 subtable 0" uni0635 dx=-128 dy=0 dh=-128 dv=0 dx=0 dy=0 dh=0 dv=0
PairPos2: "'kern' Horizontal Kerning lookup 0 subtable 0" uniFEB7 dx=-128 dy=0 dh=-128 dv=0 dx=0 dy=0 dh=0 dv=0
PairPos2: "'kern' Horizontal Kerning lookup 0 subtable 0" uni0634 dx=-128 dy=0 dh=-128 dv=0 dx=0 dy=0 dh=0 dv=0
PairPos2: "'kern' Horizontal Kerning lookup 0 subtable 0" uniFEB3 dx=-128 dy=0 dh=-128 dv=0 dx=0 dy=0 dh=0 dv=0
PairPos2: "'kern' Horizontal Kerning lookup 0 subtable 0" uni0633 dx=-128 dy=0 dh=-128 dv=0 dx=0 dy=0 dh=0 dv=0
PairPos2: "'kern' Horizontal Kerning lookup 0 subtable 0" uni0630 dx=-128 dy=0 dh=-128 dv=0 dx=0 dy=0 dh=0 dv=0
PairPos2: "'kern' Horizontal Kerning lookup 0 subtable 0" uni062F dx=-128 dy=0 dh=-128 dv=0 dx=0 dy=0 dh=0 dv=0
PairPos2: "'kern' Horizontal Kerning lookup 0 subtable 0" uniFEA7 dx=-128 dy=0 dh=-128 dv=0 dx=0 dy=0 dh=0 dv=0
PairPos2: "'kern' Horizontal Kerning lookup 0 subtable 0" uniFEA3 dx=-128 dy=0 dh=-128 dv=0 dx=0 dy=0 dh=0 dv=0
PairPos2: "'kern' Horizontal Kerning lookup 0 subtable 0" uniFE9F dx=-128 dy=0 dh=-128 dv=0 dx=0 dy=0 dh=0 dv=0
PairPos2: "'kern' Horizontal Kerning lookup 0 subtable 0" uniFE9B dx=-128 dy=0 dh=-128 dv=0 dx=0 dy=0 dh=0 dv=0
PairPos2: "'kern' Horizontal Kerning lookup 0 subtable 0" uni062B dx=-128 dy=0 dh=-128 dv=0 dx=0 dy=0 dh=0 dv=0
PairPos2: "'kern' Horizontal Kerning lookup 0 subtable 0" uniFE97 dx=-128 dy=0 dh=-128 dv=0 dx=0 dy=0 dh=0 dv=0
PairPos2: "'kern' Horizontal Kerning lookup 0 subtable 0" uni062A dx=-128 dy=0 dh=-128 dv=0 dx=0 dy=0 dh=0 dv=0
PairPos2: "'kern' Horizontal Kerning lookup 0 subtable 0" uni0629 dx=-128 dy=0 dh=-128 dv=0 dx=0 dy=0 dh=0 dv=0
PairPos2: "'kern' Horizontal Kerning lookup 0 subtable 0" uniFE91 dx=-53 dy=0 dh=-53 dv=0 dx=0 dy=0 dh=0 dv=0
PairPos2: "'kern' Horizontal Kerning lookup 0 subtable 0" uni0628 dx=-128 dy=0 dh=-128 dv=0 dx=0 dy=0 dh=0 dv=0
PairPos2: "'kern' Horizontal Kerning lookup 0 subtable 0" uni0627 dx=-150 dy=0 dh=-150 dv=0 dx=0 dy=0 dh=0 dv=0
PairPos2: "'kern' Horizontal Kerning lookup 0 subtable 0" uni0622 dx=-150 dy=0 dh=-150 dv=0 dx=0 dy=0 dh=0 dv=0
PairPos2: "'kern' Horizontal Kerning lookup 0 subtable 0" uniFB94 dx=-235 dy=0 dh=-235 dv=0 dx=0 dy=0 dh=0 dv=0
PairPos2: "'kern' Horizontal Kerning lookup 0 subtable 0" uni06AF dx=-235 dy=0 dh=-235 dv=0 dx=0 dy=0 dh=0 dv=0
PairPos2: "'kern' Horizontal Kerning lookup 0 subtable 0" uniFB56 dx=-128 dy=0 dh=-128 dv=0 dx=0 dy=0 dh=0 dv=0
PairPos2: "'kern' Horizontal Kerning lookup 0 subtable 0" uni067E dx=-128 dy=0 dh=-128 dv=0 dx=0 dy=0 dh=0 dv=0
Substitution2: "'fina' Terminal Forms in Arabic lookup 9 subtable" uniFEAE
EndChar

StartChar: uni0633
Encoding: 1587 1587 27
GlifName: uni0633
Width: 2364
GlyphClass: 2
Flags: HW
AnchorPoint: "Anchor-7" 694 -748 basechar 0
AnchorPoint: "Anchor-10" 1687 1025.7 basechar 0
LayerCount: 2
Fore
SplineSet
1934 369 m 256
 2012 369 2077 398 2077 467 c 256
 2077 532 2044 560 1981 681 c 257
 2133 873 l 257
 2157 905 2162 908 2185 873 c 257
 2254 762 2288 640 2288 506 c 256
 2288 280 2163 -1 1935 -1 c 256
 1830 -1 1749 53 1689 159 c 257
 1622 53 1546 0 1458 0 c 256
 1411 0 1363 14 1315 42 c 257
 1296 -333 1083 -546 694 -547 c 257
 322 -546 91 -355 91 -3 c 256
 91 153 129 310 201 467 c 257
 342 422 l 257
 307 308 290 210 290 131 c 256
 290 -109 449 -196 696 -196 c 256
 923 -196 1132 -94 1132 48 c 256
 1132 108 1045 248 974 363 c 257
 1140 605 l 258
 1154 625 1167 619 1182 595 c 257
 1214 539 1247 485 1283 449 c 257
 1331 396 1384 370 1449 370 c 256
 1548 370 1602 416 1610 507 c 258
 1624 655 l 257
 1763 655 l 257
 1779 513 l 258
 1790 417 1842 369 1934 369 c 256
EndSplineSet
Substitution2: "'fina' Terminal Forms in Arabic lookup 9 subtable" uniFEB2
Substitution2: "'medi' Medial Forms in Arabic lookup 11 subtable" uniFEB4
Substitution2: "'init' Initial Forms in Arabic lookup 13 subtable" uniFEB3
EndChar

StartChar: uni0635
Encoding: 1589 1589 29
GlifName: uni0635
Width: 2608
GlyphClass: 2
Flags: HW
AnchorPoint: "Anchor-7" 694 -748 basechar 0
AnchorPoint: "Anchor-10" 2093 1255 basechar 0
LayerCount: 2
Fore
SplineSet
1444 372 m 257
 1617 604 1915 920 2187 920 c 256
 2391 920 2526 795 2526 575 c 256
 2526 230 2221 1 1806 1 c 258
 1584 1 l 258
 1474 1 1384 14 1315 40 c 257
 1296 -338 1081 -546 685 -547 c 257
 320 -546 91 -351 91 -3 c 256
 91 153 129 310 201 467 c 257
 342 422 l 257
 307 308 290 210 290 131 c 256
 290 -106 449 -196 691 -196 c 256
 954 -196 1132 -79 1132 45 c 256
 1132 99 1045 247 973 363 c 257
 1139 604 l 258
 1152 623 1166 621 1182 596 c 258
 1247 496 l 258
 1294 423 1368 373 1444 372 c 257
2321 469 m 256
 2321 550 2250 615 2100 615 c 256
 1951 615 1782 523 1621 371 c 257
 1909 371 l 258
 2181 371 2321 383 2321 469 c 256
EndSplineSet
Substitution2: "'fina' Terminal Forms in Arabic lookup 9 subtable" uniFEBA
Substitution2: "'medi' Medial Forms in Arabic lookup 11 subtable" uniFEBC
Substitution2: "'init' Initial Forms in Arabic lookup 13 subtable" uniFEBB
EndChar

StartChar: uni0637
Encoding: 1591 1591 31
GlifName: uni0637
Width: 1550
GlyphClass: 2
Flags: HW
AnchorPoint: "Anchor-10" 460 1560 basechar 0
AnchorPoint: "Anchor-7" 687 -212 basechar 0
LayerCount: 2
Fore
SplineSet
1468 572 m 256
 1468 207 1139 0 749 0 c 258
 241 0 l 257
 49 274 l 258
 -9 357 18 369 80 369 c 258
 399 369 l 257
 399 375 399 384 399 393 c 257
 393 680 374 1104 337 1326 c 257
 570 1482 l 258
 617 1514 626 1518 626 1444 c 258
 626 635 l 257
 813 824 981 919 1130 919 c 256
 1335 919 1468 792 1468 572 c 256
1263 469 m 256
 1263 549 1192 614 1042 614 c 256
 895 614 723 523 563 370 c 257
 853 370 l 258
 1132 370 1263 385 1263 469 c 256
EndSplineSet
Substitution2: "'fina' Terminal Forms in Arabic lookup 9 subtable" uniFEC2
Substitution2: "'medi' Medial Forms in Arabic lookup 11 subtable" uniFEC4
Substitution2: "'init' Initial Forms in Arabic lookup 13 subtable" uniFEC3
EndChar

StartChar: uni0639
Encoding: 1593 1593 33
GlifName: uni0639
Width: 1270
GlyphClass: 2
Flags: HW
AnchorPoint: "Anchor-7" 707 -851 basechar 0
AnchorPoint: "Anchor-10" 665 1329 basechar 0
LayerCount: 2
Fore
SplineSet
735 -387 m 256
 891 -387 1028 -373 1146 -355 c 256
 1201 -347 1190 -389 1169 -426 c 258
 1076 -590 l 258
 1043 -650 994 -680 929 -689 c 256
 877 -696 816 -698 744 -698 c 257
 341 -698 97 -539 97 -147 c 256
 97 81 204 281 413 414 c 257
 338 493 286 590 286 682 c 256
 286 905 465 1105 695 1105 c 256
 827 1105 934 1058 1019 963 c 257
 1002 899 985 844 966 784 c 257
 888 819 813 838 738 838 c 256
 613 838 472 759 472 686 c 256
 472 641 582 548 674 521 c 257
 813 548 965 572 1081 577 c 257
 1124 578 1135 562 1125 520 c 258
 1060 253 l 257
 694 249 269 132 269 -130 c 256
 269 -315 434 -387 735 -387 c 256
EndSplineSet
Substitution2: "'fina' Terminal Forms in Arabic lookup 9 subtable" uniFECA
Substitution2: "'medi' Medial Forms in Arabic lookup 11 subtable" uniFECC
Substitution2: "'init' Initial Forms in Arabic lookup 13 subtable" uniFECB
EndChar

StartChar: uni0640
Encoding: 1600 1600 35
GlifName: afii57440
Width: 245
GlyphClass: 2
Flags: HW
AnchorPoint: "Anchor-7" 120 -225 basechar 0
AnchorPoint: "Anchor-10" 131 931 basechar 0
LayerCount: 2
Fore
SplineSet
-60 142 m 258
 -60 237 l 258
 -60 325 -42 369 -5 369 c 258
 250 369 l 258
 267 369 275 325 275 237 c 258
 275 142 l 258
 275 47 267 0 250 0 c 258
 -5 0 l 258
 -42 0 -60 47 -60 142 c 258
EndSplineSet
EndChar

StartChar: uni0643
Encoding: 1603 1603 38
GlifName: uni0643
Width: 1899
GlyphClass: 2
Flags: HW
AnchorPoint: "Anchor-10" 970 1415 basechar 0
AnchorPoint: "Anchor-7" 892 -208 basechar 0
LayerCount: 2
Fore
SplineSet
891 748 m 4
 965 748 1076 765 1076 824 c 4
 1076 854 1031 878 940 898 c 4
 827 922 771 987 771 1095 c 4
 771 1223 878 1297 1089 1326 c 4
 1123 1332 1142 1321 1132 1291 c 6
 1096 1187 l 5
 933 1171 850 1137 850 1087 c 4
 850 1057 895 1034 986 1018 c 4
 1104 997 1166 941 1166 824 c 4
 1166 678 1043 610 887 610 c 4
 810 610 745 621 671 645 c 5
 684 786 l 5
 756 761 825 748 891 748 c 4
1773 711 m 258
 1773 425 1720 245 1619 163 c 256
 1474 46 1213 0 846 0 c 256
 422 0 89 106 89 484 c 256
 89 624 122 758 188 886 c 257
 307 839 l 257
 286 763 275 697 275 642 c 257
 275 442 466 366 858 366 c 256
 1215 366 1409 396 1487 452 c 256
 1531 483 1533 542 1533 616 c 256
 1533 773 1509 1166 1486 1325 c 257
 1728 1481 l 257
 1769 1509 1773 1505 1773 1441 c 258
 1773 711 l 258
EndSplineSet
Substitution2: "'fina' Terminal Forms in Arabic lookup 9 subtable" uniFEDA
Substitution2: "'medi' Medial Forms in Arabic lookup 11 subtable" uniFEDC
Substitution2: "'init' Initial Forms in Arabic lookup 13 subtable" uniFEDB
EndChar

StartChar: uni0644
Encoding: 1604 1604 39
GlifName: uni0644
Width: 1392
GlyphClass: 2
Flags: HW
AnchorPoint: "Anchor-7" 679 -703 basechar 0
AnchorPoint: "Anchor-10" 566 1010 basechar 0
LayerCount: 2
Fore
SplineSet
1269 191 m 258
 1280 -265 1092 -531 668 -531 c 256
 314 -531 85 -325 85 14 c 256
 85 175 123 331 195 484 c 257
 335 439 l 257
 301 324 283 227 283 147 c 256
 283 -86 440 -179 674 -179 c 256
 882 -179 1059 -103 1059 99 c 256
 1059 267 1004 712 947 1324 c 257
 1169 1471 l 257
 1223 1508 1236 1513 1238 1428 c 258
 1269 191 l 258
EndSplineSet
Substitution2: "'fina' Terminal Forms in Arabic lookup 9 subtable" uniFEDE
Substitution2: "'medi' Medial Forms in Arabic lookup 11 subtable" uniFEE0
Substitution2: "'init' Initial Forms in Arabic lookup 13 subtable" uniFEDF
EndChar

StartChar: uni0645
Encoding: 1605 1605 40
GlifName: uni0645
Width: 1146
GlyphClass: 2
Flags: HW
AnchorPoint: "Anchor-7" 248 -866 basechar 0
AnchorPoint: "Anchor-10" 655 1161 basechar 0
LayerCount: 2
Fore
SplineSet
388 80 m 256
 354 80 323 75 298 64 c 257
 312 -419 l 257
 316 -520 276 -605 200 -683 c 256
 160 -724 108 -763 104 -671 c 256
 97 -499 90 -307 89 -112 c 257
 90 134 131 337 305 407 c 257
 371 655 461 874 673 875 c 257
 855 875 1077 605 1078 393 c 257
 1078 256 969 46 877 27 c 257
 868 24 856 24 841 27 c 256
 654 62 504 80 388 80 c 256
458 417 m 257
 562 412 663 402 731 390 c 256
 784 380 838 373 850 372 c 257
 867 369 888 366 886 379 c 257
 869 457 769 607 653 607 c 256
 568 607 488 499 458 417 c 257
EndSplineSet
Substitution2: "'init' Initial Forms in Arabic lookup 13 subtable" uniFEE3
Substitution2: "'medi' Medial Forms in Arabic lookup 11 subtable" uniFEE4
Substitution2: "'fina' Terminal Forms in Arabic lookup 9 subtable" uniFEE2
EndChar

StartChar: uni0647
Encoding: 1607 1607 42
GlifName: uni0647
Width: 903
GlyphClass: 2
Flags: HW
AnchorPoint: "Anchor-7" 427 -217 basechar 0
AnchorPoint: "Anchor-10" 379 1199 basechar 0
LayerCount: 2
Fore
SplineSet
456 5 m 256
 217 5 86 144 86 380 c 256
 86 542 161 721 313 916 c 256
 335 945 361 957 397 944 c 256
 619 863 826 667 826 425 c 256
 826 187 687 5 456 5 c 256
383 624 m 257
 312 531 266 463 266 418 c 260
 266 357 350 342 449 342 c 256
 568 342 647 373 647 439 c 256
 647 525 488 585 383 624 c 257
EndSplineSet
Substitution2: "'fina' Terminal Forms in Arabic lookup 9 subtable" uniFEEA
Substitution2: "'medi' Medial Forms in Arabic lookup 11 subtable" uniFEEC
Substitution2: "'init' Initial Forms in Arabic lookup 13 subtable" uniFEEB
EndChar

StartChar: uni0648
Encoding: 1608 1608 43
GlifName: uni0648
Width: 823
GlyphClass: 2
Flags: HW
AnchorPoint: "Anchor-7" 362 -652 basechar 0
AnchorPoint: "Anchor-10" 424 1067 basechar 0
LayerCount: 2
Fore
SplineSet
532 1 m 1
 488 -5 452 -6 410 -6 c 256
 198 -4 83 104 83 304 c 256
 83 519 202 819 417 819 c 256
 666 819 753 512 753 233 c 256
 753 -231 514 -443 336 -533 c 256
 292 -555 222.51171875 -545.153320312 175 -519 c 258
 66 -459 l 258
 -78 -380 0 -365 68 -337 c 256
 281 -249 470 -106 532 1 c 1
258 429 m 257
 258 365 351 356 429 356 c 256
 472 356 527 358 575 361 c 257
 543 476 478 545 384 546 c 257
 319 545 258 502 258 429 c 257
EndSplineSet
Substitution2: "'fina' Terminal Forms in Arabic lookup 9 subtable" uniFEEE
EndChar

StartChar: uni0649
Encoding: 1609 1609 44
GlifName: uni0649
Width: 1517
GlyphClass: 2
Flags: HW
AnchorPoint: "Anchor-10" 630 898 basechar 0
AnchorPoint: "Anchor-7" 686 -731 basechar 0
LayerCount: 2
Fore
SplineSet
1288 540 m 256
 1144 540 1032 477 948 364 c 257
 1195 296 l 258
 1323 260 1382 212 1382 92 c 256
 1382 -266 1081 -519 697 -519 c 256
 323 -519 91 -331 91 26 c 256
 91 186 133 354 217 528 c 257
 354 481 l 257
 310 348 289 241 289 163 c 256
 289 -72 443 -172 704 -172 c 256
 1029 -172 1192 -43 1192 -10 c 256
 1192 -4 1186.87651286 -0.418451107948 1178 2 c 258
 841 94 l 258
 746.344726562 119.57421875 729 149 729 222 c 256
 729 524 977 859 1269 859 c 256
 1333 859 1392 845 1449 817 c 261
 1404 530 l 261
 1370 535 1327 540 1288 540 c 256
EndSplineSet
Substitution2: "'fina' Terminal Forms in Arabic lookup 9 subtable" uniFEF0
Substitution2: "'medi' Medial Forms in Arabic lookup 11 subtable" uniFBE9
Substitution2: "'init' Initial Forms in Arabic lookup 13 subtable" uniFBE8
EndChar

StartChar: uni064B
Encoding: 1611 1611 46
GlifName: uni064B_
Width: 10
VWidth: 2316
GlyphClass: 4
Flags: HW
AnchorPoint: "Anchor-10" 583.551 1123.65 mark 0
AnchorPoint: "Anchor-9" 583.551 1123.65 mark 0
AnchorPoint: "Anchor-1" 553.285 1596.25 basemark 0
AnchorPoint: "Anchor-1" 583.551 1123.65 mark 0
LayerCount: 2
Fore
SplineSet
327 1076 m 1
 327 1180 l 1
 782 1366 l 1
 782 1263 l 1
 327 1076 l 1
327 1288 m 1
 327 1392 l 1
 782 1578 l 1
 782 1475 l 1
 327 1288 l 1
EndSplineSet
EndChar

StartChar: uni064C
Encoding: 1612 1612 47
GlifName: uni064C_
Width: 0
VWidth: 2316
GlyphClass: 4
Flags: HW
AnchorPoint: "Anchor-10" 680.906 1278.67 mark 0
AnchorPoint: "Anchor-9" 680.906 1278.67 mark 0
AnchorPoint: "Anchor-1" 637.739 1852.46 basemark 0
AnchorPoint: "Anchor-1" 680.906 1278.67 mark 0
LayerCount: 2
Fore
SplineSet
489 1629 m 0
 489 1726.34403608 557.578720581 1791 652 1791 c 0
 746.9412073 1791 814 1727.26136914 814 1628 c 0
 814 1589 804 1547 787 1507 c 1
 804 1504 819 1503 830 1503 c 1
 830 1427 l 1
 810 1428 786 1430 754 1436 c 1
 690.818294178 1315.56736709 597.606445312 1250.9921875 471.8671875 1250.9921875 c 0
 339.267578125 1250.9921875 270.984375 1343.99511719 268 1530 c 1
 347 1544 l 1
 350 1400 392 1329 473 1329 c 0
 547 1329 614 1373 673 1448 c 1
 567.206830152 1485.02760945 489 1533.83885907 489 1629 c 0
709 1523 m 1
 723.053510163 1555.79152371 736 1594.57522464 736 1627 c 0
 736 1675.05260976 699.641537636 1711 656 1711 c 0
 605.751193998 1711 569 1677.13488171 569 1625 c 0
 569 1567.8418395 644.003567546 1540.204938 709 1523 c 1
EndSplineSet
EndChar

StartChar: uni064D
Encoding: 1613 1613 48
GlifName: uni064D_
Width: 3
VWidth: 2316
GlyphClass: 4
Flags: HW
AnchorPoint: "Anchor-7" 545.278 32.7109 mark 0
AnchorPoint: "Anchor-6" 545.278 32.7109 mark 0
AnchorPoint: "Anchor-0" 595.022 -407.025 basemark 0
AnchorPoint: "Anchor-0" 545.278 32.7109 mark 0
LayerCount: 2
Fore
SplineSet
335 -446 m 1
 335 -342 l 1
 791 -156 l 1
 791 -260 l 1
 335 -446 l 1
335 -234 m 1
 335 -130 l 1
 791 56 l 1
 791 -48 l 1
 335 -234 l 1
EndSplineSet
EndChar

StartChar: uni064E
Encoding: 1614 1614 49
GlifName: uni064E_
Width: 0
VWidth: 2316
GlyphClass: 4
Flags: HW
AnchorPoint: "Anchor-10" 545.66 1397.63 mark 0
AnchorPoint: "Anchor-9" 545.66 1397.63 mark 0
AnchorPoint: "Anchor-1" 541.396 1651.77 basemark 0
AnchorPoint: "Anchor-1" 545.66 1397.63 mark 0
LayerCount: 2
Fore
SplineSet
296 1349 m 1
 296 1453 l 1
 752 1639 l 1
 752 1535 l 1
 296 1349 l 1
EndSplineSet
EndChar

StartChar: uni064F
Encoding: 1615 1615 50
GlifName: uni064F_
Width: 10
VWidth: 2316
GlyphClass: 4
Flags: HW
AnchorPoint: "Anchor-10" 591.295 1359.37 mark 0
AnchorPoint: "Anchor-9" 591.295 1359.37 mark 0
AnchorPoint: "Anchor-1" 542.134 1865.4 basemark 0
AnchorPoint: "Anchor-1" 591.295 1359.37 mark 0
LayerCount: 2
Fore
SplineSet
723 1427 m 1
 695 1427 669 1429 643 1433 c 1
 578 1342 420 1318 256 1309 c 1
 256 1387 l 1
 387 1399 519 1405 566 1455 c 1
 474.464114966 1471.64288819 380 1532.46344456 380 1626 c 0
 380 1723.76653486 448.787416907 1788 543 1788 c 0
 637.483259282 1788 706 1723.30209735 706 1625 c 0
 706 1586 697 1547 680 1506 c 1
 693 1504 708 1502 723 1502 c 1
 723 1427 l 1
600 1520 m 1
 614.053510163 1552.79152371 627 1591.57522464 627 1624 c 0
 627 1672.52693762 591.420717666 1707 547 1707 c 0
 496.353069173 1707 460 1674.44739485 460 1622 c 0
 460 1564.8418395 535.003567546 1537.204938 600 1520 c 1
EndSplineSet
EndChar

StartChar: uni0650
Encoding: 1616 1616 51
GlifName: uni0650
Width: 10
VWidth: 2316
GlyphClass: 4
Flags: HW
AnchorPoint: "Anchor-7" 571.144 -44.8242 mark 0
AnchorPoint: "Anchor-6" 571.144 -44.8242 mark 0
AnchorPoint: "Anchor-0" 619.091 -324.624 basemark 0
AnchorPoint: "Anchor-0" 571.144 -44.8242 mark 0
LayerCount: 2
Fore
SplineSet
343 -346 m 1
 343 -242 l 1
 798 -56 l 1
 798 -159 l 1
 343 -346 l 1
EndSplineSet
EndChar

StartChar: uni0651
Encoding: 1617 1617 52
GlifName: uni0651
Width: 0
GlyphClass: 4
Flags: HW
AnchorPoint: "Anchor-10" 592 1433 mark 0
AnchorPoint: "Anchor-9" 592 1433 mark 0
AnchorPoint: "Anchor-1" 562 1868 basemark 0
AnchorPoint: "Anchor-1" 592 1433 mark 0
LayerCount: 2
Fore
SplineSet
418 1548 m 0xb8
 476 1548 505 1582 505 1651 c 2
 505 1772 l 1
 536 1782 568 1787 599 1790 c 1
 601 1702 l 2
 602 1640 630 1609 686 1609 c 0
 733 1609 758 1641 758 1705 c 0
 758 1730 757 1759 755 1786 c 1
 848 1847 l 1
 853 1805 856 1755 856 1712 c 0
 856 1551 805 1471 703 1471 c 0x78
 651 1471 608 1489 572 1525 c 1
 540 1448 487 1410 411 1410 c 0
 306 1410 254 1481 254 1623 c 0
 254 1664 257 1705 261 1745 c 1
 345 1711 l 1
 346 1632 l 2
 347 1576 371 1548 418 1548 c 0xb8
EndSplineSet
EndChar

StartChar: uni0652
Encoding: 1618 1618 53
GlifName: uni0652
Width: 7
VWidth: 2316
GlyphClass: 4
Flags: HW
AnchorPoint: "Anchor-10" 615.219 1271.43 mark 0
AnchorPoint: "Anchor-9" 615.219 1271.43 mark 0
AnchorPoint: "Anchor-1" 589.537 1682.66 basemark 0
AnchorPoint: "Anchor-1" 615.219 1271.43 mark 0
LayerCount: 2
Fore
SplineSet
421.07421875 1461.82128906 m 128
 421.07421875 1558.0090031 498.217186311 1635.14941406 594.40234375 1635.14941406 c 128
 690.589197165 1635.14941406 767.731445312 1558.00592629 767.731445312 1461.82128906 c 128
 767.731445312 1365.63505466 690.585602301 1288.49316406 594.40234375 1288.49316406 c 128
 498.215665264 1288.49316406 421.07421875 1365.63709537 421.07421875 1461.82128906 c 128
502.666015625 1461.02246094 m 0
 501.783217866 1409.2985377 544.56744345 1367.02229206 596.758789062 1366.92871094 c 0
 648.762845901 1367.02318612 691.048987476 1409.12177258 690.8515625 1461.02246094 c 0
 691.04919912 1512.91897674 648.759953131 1554.96284711 596.758789062 1555.11425781 c 0
 544.563299839 1554.96425972 501.782224782 1512.74495934 502.666015625 1461.02246094 c 0
EndSplineSet
EndChar

StartChar: uni0653
Encoding: 1619 1619 54
GlifName: uni0653
Width: 0
GlyphClass: 4
Flags: HW
AnchorPoint: "Anchor-1" 469 1582 mark 0
AnchorPoint: "Anchor-1" 455 2046 basemark 0
AnchorPoint: "Anchor-10" 469 1582 mark 0
AnchorPoint: "Anchor-9" 469 1582 mark 0
LayerCount: 2
Fore
SplineSet
318 1892 m 256
 354 1892 411 1887 466 1880 c 256
 518 1874 569 1869 601 1869 c 256
 667 1869 724 1873 770 1885 c 257
 881 1917 834 1832 786 1769 c 256
 735 1702 693 1661 526 1661 c 256
 479 1661 424 1664 362 1669 c 257
 303 1666 241 1635 178 1579 c 257
 155 1594 130 1612 117 1630 c 257
 175 1804 220 1892 318 1892 c 256
EndSplineSet
EndChar

StartChar: uni0657
Encoding: 1623 1623 57
GlifName: uni0657
Width: 4
VWidth: 2316
GlyphClass: 4
Flags: HW
AnchorPoint: "Anchor-10" 513.285 1400.55 mark 0
AnchorPoint: "Anchor-9" 513.285 1400.55 mark 0
AnchorPoint: "Anchor-1" 537.285 2069.85 basemark 0
AnchorPoint: "Anchor-1" 513.285 1400.55 mark 0
LayerCount: 2
Fore
SplineSet
265 1805 m 1
 305 1804 348 1801 395 1796 c 1
 396 1797 l 2
 496 1939 625 2018 785 2033 c 1
 785 1955 l 1
 662 1935 562 1876 486 1778 c 1
 573.073233818 1752.51515108 658 1697.36135892 658 1599 c 0
 658 1507.71378279 593.059658194 1438 501 1438 c 0
 408.64267729 1438 332 1502.56128158 332 1603 c 0
 332 1632 339 1672 355 1722 c 1
 328 1724 299 1726 265 1726 c 1
 265 1805 l 1
501 1516 m 0
 549.036312445 1516 577 1548.90280457 577 1597 c 0
 577 1658.28540997 503.060368911 1693.27134074 437 1709 c 1
 419 1666 410 1632 410 1605 c 0
 410 1552.84187884 451.285616311 1516 501 1516 c 0
EndSplineSet
EndChar

StartChar: uni065A
Encoding: 1626 1626 58
GlifName: uni065A_
Width: 1135
VWidth: 2316
GlyphClass: 4
Flags: HW
AnchorPoint: "Anchor-10" 573.285 1350.55 mark 0
AnchorPoint: "Anchor-9" 573.285 1350.55 mark 0
AnchorPoint: "Anchor-1" 571.012 1862.38 basemark 0
AnchorPoint: "Anchor-1" 573.285 1350.55 mark 0
LayerCount: 2
Fore
SplineSet
502 1444 m 5
 309 1768 l 5
 433 1768 l 5
 573 1528 l 5
 714 1768 l 5
 838 1768 l 5
 644 1444 l 5
 502 1444 l 5
EndSplineSet
EndChar

StartChar: uni0660
Encoding: 1632 1632 59
GlifName: afii57392
Width: 861
GlyphClass: 2
Flags: HW
LayerCount: 2
Fore
SplineSet
434 817 m 261
 703 547 l 261
 428 272 l 261
 158 542 l 261
 434 817 l 261
EndSplineSet
EndChar

StartChar: uni0661
Encoding: 1633 1633 60
GlifName: afii57393
Width: 752
GlyphClass: 2
Flags: HW
LayerCount: 2
Fore
SplineSet
361 1437 m 261
 492 1105 560 717 560 257 c 256
 560 193 557 125 547 73 c 256
 539 34 500 23 356 -2 c 257
 353 466 272 866 112 1229 c 261
 307 1449 l 261
 329 1475 348 1472 361 1437 c 261
EndSplineSet
EndChar

StartChar: uni0662
Encoding: 1634 1634 61
GlifName: afii57394
Width: 1142
GlyphClass: 2
Flags: HW
LayerCount: 2
Fore
SplineSet
645 1121 m 256
 777 1121 851 1207 871 1379 c 258
 877 1429 l 257
 1047 1429 l 257
 1046 1368 l 258
 1040 978 901 783 631 783 c 256
 593 783 557 785 525 791 c 257
 548 618 560 447 560 261 c 257
 560 197 557 128 547 73 c 256
 540 34 501 23 356 -2 c 257
 352 471 272 869 112 1231 c 261
 307 1449 l 262
 329 1473 349 1471 361 1437 c 260
 377 1392 398 1334 423 1264 c 256
 456 1168 530 1121 645 1121 c 256
EndSplineSet
EndChar

StartChar: uni0663
Encoding: 1635 1635 62
GlifName: afii57395
Width: 1329
GlyphClass: 2
Flags: HW
LayerCount: 2
Fore
SplineSet
528 783 m 257
 549 618 560 450 560 261 c 257
 560 197 557 128 547 73 c 256
 540 34 501 23 356 -2 c 257
 352 471 272 869 112 1231 c 261
 307 1449 l 258
 330 1474 349 1473 361 1437 c 256
 377 1391 398 1333 423 1264 c 256
 457 1169 509 1120 578 1120 c 256
 644 1120 682 1169 692 1266 c 258
 705 1387 l 257
 869 1387 l 257
 872 1265 l 257
 873 1168 906 1119 970 1119 c 256
 1022 1119 1053 1173 1063 1284 c 258
 1074 1410 l 257
 1245 1410 l 257
 1244 1344 l 257
 1242 978 1148 794 959 794 c 256
 878 794 813 836 763 919 c 257
 724 832 655 787 557 783 c 257
 547 782 538 782 528 783 c 257
EndSplineSet
EndChar

StartChar: uni0664
Encoding: 1636 1636 63
GlifName: afii57396
Width: 988
GlyphClass: 2
Flags: HW
LayerCount: 2
Fore
SplineSet
447 356 m 257
 529 324 712 312 889 314 c 257
 883 85 l 257
 882 17 869 -1 821 -1 c 256
 489 -1 125 81 125 269 c 256
 125 395 239 531 427 648 c 257
 216 749 110 850 110 949 c 256
 110 1144 389 1291 706 1434 c 257
 772 1465 803 1457 790 1389 c 258
 728 1069 l 257
 618 1053 525 1032 451 1004 c 256
 410 989 412 962 452 937 c 256
 544 880 647 828 760 779 c 257
 764 724 768 670 772 614 c 257
 614 546 498 480 435 418 c 256
 408 390 405 369 447 356 c 257
EndSplineSet
EndChar

StartChar: uni0665
Encoding: 1637 1637 64
GlifName: afii57397
Width: 1145
GlyphClass: 2
Flags: HW
LayerCount: 2
Fore
SplineSet
552 957 m 257
 397 767 320 613 320 496 c 256
 320 367 421 313 564 313 c 256
 730 313 840 370 840 501 c 256
 840 626 744 778 552 957 c 257
320 1157 m 257
 483 1451 l 261
 869 1114 1063 793 1063 482 c 256
 1063 197 859 -10 561 -10 c 256
 284 -10 80 174 80 446 c 256
 80 635 195 857 399 1097 c 257
 320 1157 l 257
EndSplineSet
EndChar

StartChar: uni0666
Encoding: 1638 1638 65
GlifName: afii57398
Width: 1204
GlyphClass: 2
Flags: HW
LayerCount: 2
Fore
SplineSet
907 1396 m 261
 920 680 976 349 1102 196 c 257
 921 -17 l 257
 741 160 705 484 682 1057 c 261
 581 1039 484 1029 400 1029 c 260
 257 1029 160 1049 120 1091 c 260
 89 1124 75 1219 66 1381 c 261
 63 1455 75 1455 133 1433 c 260
 249 1389 387 1366 548 1366 c 260
 656 1366 782 1379 907 1396 c 261
EndSplineSet
EndChar

StartChar: uni0667
Encoding: 1639 1639 66
GlifName: afii57399
Width: 1247
GlyphClass: 2
Flags: HW
LayerCount: 2
Fore
SplineSet
1188 1218 m 257
 996 881 843 488 730 -3 c 257
 542 -3 l 257
 444 457 283 848 60 1208 c 257
 230 1454 l 258
 247.476066923 1479.28889684 265 1470 280 1441 c 256
 418 1186 534 864 630 454 c 257
 740 910 845 1229 943 1432 c 256
 958 1464 976.103809576 1474.91040704 995 1452 c 262
 1188 1218 l 257
EndSplineSet
EndChar

StartChar: uni0668
Encoding: 1640 1640 67
GlifName: afii57400
Width: 1248
GlyphClass: 2
Flags: HW
LayerCount: 2
Fore
SplineSet
1188 223 m 261
 995 -11 l 262
 975.612944949 -34.5055486115 959 -24 943 9 c 256
 845 212 740 531 630 987 c 257
 534 577 418 256 280 0 c 256
 265 -29 247.140108332 -38.9035691644 230 -14 c 262
 60 233 l 261
 283 594 444 983 542 1443 c 257
 730 1443 l 257
 843 953 996 560 1188 223 c 261
EndSplineSet
EndChar

StartChar: uni0669
Encoding: 1641 1641 68
GlifName: afii57401
Width: 1080
GlyphClass: 2
Flags: HW
LayerCount: 2
Fore
SplineSet
457 924 m 261
 506 924 562 929 624 940 c 261
 610 1092 570 1181 446 1181 c 260
 366 1181 297 1109 297 1002 c 260
 297 926 363 924 457 924 c 261
451 1462 m 260
 716 1462 830 1235 836 940 c 260
 843.749257947 558.994817619 901 313 1007 202 c 261
 837 -20 l 261
 708 88 642 312 637 633 c 261
 569 623 508 619 453 619 c 260
 223 619 99 721 99 944 c 260
 99 1204 239 1462 451 1462 c 260
EndSplineSet
EndChar

StartChar: uni066A
Encoding: 1642 1642 69
GlifName: afii57381
Width: 1033
VWidth: 4036
GlyphClass: 2
Flags: HW
LayerCount: 2
Fore
SplineSet
722 1365 m 5
 927 1272 l 5
 312 -7 l 5
 107 85 l 5
 722 1365 l 5
597 233 m 0
 597 328 674 407 770 407 c 0
 866 407 943 328 943 233 c 0
 943 138 865 60 770 60 c 0
 675 60 597 135 597 233 c 0
90 1119 m 0
 90 1214 167 1293 263 1293 c 0
 359 1293 436 1214 436 1119 c 0
 436 1024 358 946 263 946 c 0
 168 946 90 1021 90 1119 c 0
EndSplineSet
EndChar

StartChar: uni066B
Encoding: 1643 1643 70
GlifName: uni066B_
Width: 772
VWidth: 2950
GlyphClass: 2
Flags: HW
LayerCount: 2
Fore
SplineSet
513.194335938 805.3125 m 1
 713.705078125 720.055664062 l 1
 219.842773438 -420.532226562 l 1
 16.2568359375 -332.833007812 l 1
 513.194335938 805.3125 l 1
EndSplineSet
PairPos2: "'kern' Horizontal Kerning lookup 0 subtable 6" uni06F4 dx=-110 dy=0 dh=-110 dv=0 dx=0 dy=0 dh=0 dv=0
PairPos2: "'kern' Horizontal Kerning lookup 0 subtable 6" uni06F3 dx=-130 dy=0 dh=-130 dv=0 dx=0 dy=0 dh=0 dv=0
PairPos2: "'kern' Horizontal Kerning lookup 0 subtable 6" uni06F2 dx=-130 dy=0 dh=-130 dv=0 dx=0 dy=0 dh=0 dv=0
EndChar

StartChar: uni066C
Encoding: 1644 1644 71
GlifName: uni066C_
Width: 503
GlyphClass: 2
Flags: HW
LayerCount: 2
Fore
SplineSet
91.5341796875 134.399414062 m 4
 91.5341796875 221.549804688 142.984375 284.549804688 234.334960938 284.549804688 c 4
 340.384765625 284.549804688 388.684570312 220.5 388.684570312 90.2998046875 c 4
 388.684570312 -63 331.984375 -204.75 154.534179688 -310.799804688 c 4
 82.0849609375 -353.850585938 44.2841796875 -298.200195312 78.9345703125 -267.75 c 4
 196.534179688 -164.850585938 228.034179688 -80.8505859375 228.034179688 -31.5 c 5
 134.584960938 16.7998046875 91.5341796875 40.9501953125 91.5341796875 134.399414062 c 4
EndSplineSet
PairPos2: "'kern' Horizontal Kerning lookup 0 subtable 6" uni06F4 dx=-118 dy=0 dh=-118 dv=0 dx=0 dy=0 dh=0 dv=0
PairPos2: "'kern' Horizontal Kerning lookup 0 subtable 6" uni06F3 dx=-134 dy=0 dh=-134 dv=0 dx=0 dy=0 dh=0 dv=0
PairPos2: "'kern' Horizontal Kerning lookup 0 subtable 6" uni06F2 dx=-118 dy=0 dh=-118 dv=0 dx=0 dy=0 dh=0 dv=0
EndChar

StartChar: uni066D
Encoding: 1645 1645 72
GlifName: afii63167
Width: 1734
GlyphClass: 2
Flags: HW
LayerCount: 2
Fore
SplineSet
165 1192 m 257
 701 1192 l 257
 869 1702 l 257
 1037 1192 l 257
 1573 1192 l 257
 1139 875 l 257
 1305 365 l 257
 869 681 l 257
 432 365 l 257
 599 875 l 257
 165 1192 l 257
EndSplineSet
EndChar

StartChar: uni066E
Encoding: 1646 1646 73
GlifName: uni066E_
Width: 1798
GlyphClass: 2
Flags: HW
AnchorPoint: "Anchor-7" 640 -205 basechar 0
AnchorPoint: "Anchor-10" 783 1279 basechar 0
LayerCount: 2
Fore
SplineSet
833 0 m 256
 421 0 89 113 89 484 c 260
 89 620 122 751 185 876 c 257
 313 833 l 257
 292 759 282 695 282 637 c 256
 282 425 504 366 849 366 c 256
 1197 366 1502 378 1502 482 c 256
 1502 527 1457 606 1406 715 c 257
 1559 909 l 258
 1583 939 1589 942 1608 910 c 256
 1677 795 1711 668 1712 511 c 257
 1711 127 1351 0 833 0 c 256
EndSplineSet
Substitution2: "'fina' Terminal Forms in Arabic lookup 9 subtable" uni066E.fina
EndChar

StartChar: uni066F
Encoding: 1647 1647 74
GlifName: uni066F_
Width: 1408
GlyphClass: 2
Flags: HW
AnchorPoint: "Anchor-7" 561 -689 basechar 0
AnchorPoint: "Anchor-10" 540 1174 basechar 0
LayerCount: 2
Fore
SplineSet
962 103 m 256
 774 103 685 188 685 366 c 256
 685 613 796 844 999 844 c 256
 1236 844 1322 540 1322 250 c 256
 1322 -207 1137 -446 695 -446 c 256
 321 -446 90 -254 90 99 c 256
 90 259 128 416 200 568 c 257
 340 523 l 257
 306 408 288 311 288 232 c 256
 288 -10 450 -94 703 -94 c 256
 959 -94 1131 -21 1158 121 c 257
 1084 110 1013 103 962 103 c 256
993 399 m 256
 1053 399 1121 405 1157 416 c 257
 1124 527 1056 582 975 582 c 256
 913 582 848 535 848 465 c 260
 848 408 912 399 993 399 c 256
EndSplineSet
Substitution2: "'fina' Terminal Forms in Arabic lookup 9 subtable" uni066F.fina
EndChar

StartChar: uni0670
Encoding: 1648 1648 75
GlifName: uni0670
Width: 0
GlyphClass: 4
Flags: HW
AnchorPoint: "Anchor-1" 780 1759 mark 0
AnchorPoint: "Anchor-1" 734 2285 basemark 0
AnchorPoint: "Anchor-10" 780 1759 mark 0
AnchorPoint: "Anchor-9" 780 1759 mark 0
LayerCount: 2
Fore
SplineSet
734 1801 m 257
 675 2171 l 257
 812 2264 l 257
 812 1834 l 257
 734 1801 l 257
EndSplineSet
EndChar

StartChar: uni0674
Encoding: 1652 1652 76
GlifName: uni0674
Width: 802
GlyphClass: 2
Flags: HW
LayerCount: 2
Fore
SplineSet
189.331054688 1788.59082031 m 1
 213.555108408 1941.63613615 l 1
 240.353325345 1954.45356634 273.985218209 1965.90354625 298.772460938 1978.29589844 c 1
 239.264264008 2004.40141468 206 2045.73313431 206 2118 c 0
 206 2221.77929688 254.998042988 2373 422 2373 c 0
 483.517214865 2373 540.43196009 2344.46469908 596.011547877 2292.76948236 c 1
 552.224421315 2192.15225537 l 1
 504.315678517 2207.48235426 458.883074233 2217 424 2217 c 0
 353.685899483 2217 323 2176.47167969 323 2150 c 0
 323 2120.4375 348.031737277 2069 434 2069 c 0
 466.541628737 2069 501.852460761 2074.05006797 535.357300825 2083.18775162 c 0
 561.54103605 2090.5729077 607 2104.76327528 607 2068 c 2
 607 1956.765625 l 1
 490.216796875 1923.01367188 346.421875 1863.91796875 189.331054688 1788.59082031 c 1
EndSplineSet
EndChar

StartChar: uni0686
Encoding: 1670 1670 78
GlifName: afii57507
Width: 1321
GlyphClass: 2
Flags: HW
AnchorPoint: "Anchor-10" 662 1200 basechar 0
AnchorPoint: "Anchor-7" 707 -851 basechar 0
LayerCount: 2
Fore
SplineSet
788.5 -283.830078125 m 1
 653.42578125 -148.7578125 l 1
 788.5 -13.68359375 l 1
 923.57421875 -148.7578125 l 1
 788.5 -283.830078125 l 1
937.072265625 -68.31640625 m 1
 801.997070312 66.7578125 l 1
 937.072265625 201.830078125 l 1
 1072.14648438 66.7578125 l 1
 937.072265625 -68.31640625 l 1
639.927734375 -68.31640625 m 1
 504.853515625 66.7578125 l 1
 639.927734375 201.830078125 l 1
 775.002929688 66.7578125 l 1
 639.927734375 -68.31640625 l 1
EndSplineSet
Refer: 21 1581 N 1 0 0 1 0 0 2
Substitution2: "'fina' Terminal Forms in Arabic lookup 9 subtable" uniFB7B
Substitution2: "'medi' Medial Forms in Arabic lookup 11 subtable" uniFB7D
Substitution2: "'init' Initial Forms in Arabic lookup 13 subtable" uniFB7C
EndChar

StartChar: uni06A1
Encoding: 1697 1697 80
GlifName: uni06A_1
Width: 1729
GlyphClass: 2
Flags: HW
AnchorPoint: "Anchor-7" 618 -190 basechar 0
AnchorPoint: "Anchor-10" 744 1456 basechar 0
LayerCount: 2
Fore
SplineSet
1300 757 m 256
 1362 757 1431 763 1467 773 c 257
 1434 885 1373 940 1288 940 c 256
 1225 940 1154 893 1154 822 c 256
 1154 766 1218 757 1300 757 c 256
1283 485 m 256
 1090 485 993 563 993 732 c 256
 993 977 1102 1202 1308 1202 c 256
 1551 1202 1642 883 1642 590 c 256
 1642 347.171737052 1586.01160618 201.754175554 1466 116.070531339 c 0
 1334.4514838 22.1499796666 1125.97878816 -4.61852778244e-14 830 0 c 256
 418 0 90 112 90 484 c 256
 90 630 122 760 186 876 c 257
 312 833 l 257
 292 760 282 696 282 642 c 256
 282 396 561 365 892 365 c 256
 1282 365 1453 372 1473 501 c 257
 1406 490 1341 485 1283 485 c 256
EndSplineSet
Substitution2: "'init' Initial Forms in Arabic lookup 13 subtable" uni06A1.init
Substitution2: "'medi' Medial Forms in Arabic lookup 11 subtable" uni06A1.medi
Substitution2: "'fina' Terminal Forms in Arabic lookup 9 subtable" uni06A1.fina
EndChar

StartChar: uni06A9
Encoding: 1705 1705 81
GlifName: uni06A_9
Width: 1848
GlyphClass: 2
Flags: HW
AnchorPoint: "Anchor-7" 803 -211 basechar 0
AnchorPoint: "Anchor-10" 1201 1486 basechar 0
LayerCount: 2
Fore
SplineSet
1241 1055 m 257
 1498 842 1629 657 1629 494 c 256
 1629 120 1249 0 814 0 c 256
 414 0 89 119 89 484 c 256
 89 620 122 751 185 876 c 257
 313 833 l 257
 292 759 282 695 282 641 c 256
 282 420 516 366 833 366 c 256
 1071 366 1414 401 1415 484 c 257
 1415 554 1177 747 926 945 c 257
 989 1245 l 257
 1758 1516 l 257
 1788 1527 1793.75195312 1521.32910156 1788 1482 c 258
 1751 1229 l 257
 1241 1055 l 257
EndSplineSet
Substitution2: "'init' Initial Forms in Arabic lookup 13 subtable" uniFB90
Substitution2: "'medi' Medial Forms in Arabic lookup 11 subtable" uniFB91
Substitution2: "'fina' Terminal Forms in Arabic lookup 9 subtable" uniFB8F
EndChar

StartChar: uni06AF
Encoding: 1711 1711 82
GlifName: uni06A_F_
Width: 1852
GlyphClass: 2
Flags: HW
AnchorPoint: "Anchor-10" 1247 1616 basechar 0
AnchorPoint: "Anchor-7" 803 -211 basechar 0
LayerCount: 2
Fore
SplineSet
1241 978 m 257
 1478 797 1597 635 1597 491 c 256
 1597 123 1233 0 814 0 c 256
 414 0 89 119 89 484 c 256
 89 620 122 751 185 876 c 257
 313 833 l 257
 292 759 282 695 282 641 c 256
 282 414 514 366 827 366 c 256
 1084 366 1387 393 1388 483 c 257
 1386 545 1154 710 926 869 c 257
 989 1168 l 257
 1758 1439 l 257
 1788 1450 1793.75195312 1444.32910156 1788 1405 c 258
 1751 1152 l 257
 1241 978 l 257
EndSplineSet
Refer: 273 -1 N 1.1342 0 0 1.1342 969 -653 2
Substitution2: "'fina' Terminal Forms in Arabic lookup 9 subtable" uniFB93
Substitution2: "'medi' Medial Forms in Arabic lookup 11 subtable" uniFB95
Substitution2: "'init' Initial Forms in Arabic lookup 13 subtable" uniFB94
EndChar

StartChar: uni06BA
Encoding: 1722 1722 83
GlifName: afii57514
Width: 1407
GlyphClass: 2
Flags: HW
LayerCount: 2
Fore
SplineSet
686 -410 m 256
 320 -410 91 -215 91 135 c 256
 91 290 128 447 201 605 c 257
 342 560 l 257
 307 445 290 348 290 268 c 256
 290 31 449 -58 691 -58 c 256
 939 -58 1132 50 1132 187 c 260
 1132 239 1045 386 974 501 c 257
 1141 742 l 258
 1154 762 1169 758 1186 734 c 256
 1280 598 1326 434 1326 240 c 256
 1326 -166 1101 -410 686 -410 c 256
EndSplineSet
Substitution2: "'fina' Terminal Forms in Arabic lookup 9 subtable" uniFB9F
EndChar

StartChar: uni06F0
Encoding: 1776 1776 86
GlifName: uni06F_0
Width: 861
VWidth: 2311
GlyphClass: 2
Flags: HW
LayerCount: 2
Fore
SplineSet
429.990234375 419.8203125 m 128
 490.169921875 419.8203125 541.169921875 470.8203125 541.169921875 531 c 128
 541.169921875 591.1796875 490.169921875 642.1796875 429.990234375 642.1796875 c 128
 369.809570312 642.1796875 319.830078125 591.1796875 319.830078125 531 c 128
 319.830078125 470.8203125 369.809570312 419.8203125 429.990234375 419.8203125 c 128
430.004882812 232.044921875 m 132
 266.655273438 232.044921875 132.014648438 370.64453125 132.014648438 533.995117188 c 132
 132.014648438 697.344726562 266.655273438 834.955078125 430.004882812 834.955078125 c 132
 593.35546875 834.955078125 728.985351562 697.344726562 728.985351562 533.995117188 c 132
 728.985351562 370.64453125 593.35546875 232.044921875 430.004882812 232.044921875 c 132
EndSplineSet
PairPos2: "'kern' Horizontal Kerning lookup 0 subtable 6" uni06F7 dx=-40 dy=0 dh=-40 dv=0 dx=0 dy=0 dh=0 dv=0
PairPos2: "'kern' Horizontal Kerning lookup 0 subtable 6" uni06F6 dx=-40 dy=0 dh=-40 dv=0 dx=0 dy=0 dh=0 dv=0
PairPos2: "'kern' Horizontal Kerning lookup 0 subtable 6" uni06F4 dx=-40 dy=0 dh=-40 dv=0 dx=0 dy=0 dh=0 dv=0
PairPos2: "'kern' Horizontal Kerning lookup 0 subtable 6" uni06F3 dx=-40 dy=0 dh=-40 dv=0 dx=0 dy=0 dh=0 dv=0
PairPos2: "'kern' Horizontal Kerning lookup 0 subtable 6" uni06F2 dx=-40 dy=0 dh=-40 dv=0 dx=0 dy=0 dh=0 dv=0
EndChar

StartChar: uni06F4
Encoding: 1780 1780 90
GlifName: uni06F_4
Width: 1214
GlyphClass: 2
Flags: HW
LayerCount: 2
Fore
SplineSet
884 1196 m 256
 782 1196 705 1166 705 1056 c 256
 705 1015 800 984 880 984 c 256
 961 984 1037 1000 1109 1032 c 257
 1134 817 l 257
 1042 746 935 710 810 710 c 256
 695 710 614 736 527 789 c 257
 549 626 560 447 560 261 c 256
 560 197 557 128 547 73 c 256
 540 34 501 23 356 -2 c 257
 352 466 272 866 112 1229 c 257
 307 1449 l 258
 330 1475 350 1473 361 1437 c 257
 408 1301 450 1152 534 1085 c 257
 532 1106 531 1122 531 1137 c 256
 531 1314 644 1441 834 1441 c 256
 944 1441 1033 1394 1104 1306 c 257
 1050 1157 l 257
 993 1180 932 1196 884 1196 c 256
EndSplineSet
PairPos2: "'kern' Horizontal Kerning lookup 0 subtable 6" uni06F8 dx=-70 dy=0 dh=-70 dv=0 dx=0 dy=0 dh=0 dv=0
PairPos2: "'kern' Horizontal Kerning lookup 0 subtable 6" uni06F5 dx=-70 dy=0 dh=-70 dv=0 dx=0 dy=0 dh=0 dv=0
EndChar

StartChar: uni06F5
Encoding: 1781 1781 91
GlifName: uni06F_5
Width: 1216
GlyphClass: 2
Flags: HW
LayerCount: 2
Fore
SplineSet
663 548 m 261
 701 385 762 302 853 302 c 260
 915 302 946 338 946 411 c 260
 946 545 823 727 576 980 c 261
 377 691 277 506 277 408 c 260
 277 336 311 300 378 300 c 260
 463 300 517 387 558 549 c 261
 663 548 l 261
617 153 m 261
 563 50 478 0 362 0 c 260
 175 0 81 116 81 348 c 260
 81 558 193 822 415 1163 c 261
 375 1206 l 261
 514 1427 l 262
 524 1443 538 1442 555 1424 c 260
 938 1033 1136 685 1136 375 c 260
 1136 125 1048 0 873 0 c 260
 762 0 677 51 617 153 c 261
EndSplineSet
PairPos2: "'kern' Horizontal Kerning lookup 0 subtable 6" uni06F7 dx=-70 dy=0 dh=-70 dv=0 dx=0 dy=0 dh=0 dv=0
PairPos2: "'kern' Horizontal Kerning lookup 0 subtable 6" uni06F6 dx=-70 dy=0 dh=-70 dv=0 dx=0 dy=0 dh=0 dv=0
PairPos2: "'kern' Horizontal Kerning lookup 0 subtable 6" uni06F4 dx=-70 dy=0 dh=-70 dv=0 dx=0 dy=0 dh=0 dv=0
PairPos2: "'kern' Horizontal Kerning lookup 0 subtable 6" uni06F3 dx=-100 dy=0 dh=-100 dv=0 dx=0 dy=0 dh=0 dv=0
PairPos2: "'kern' Horizontal Kerning lookup 0 subtable 6" uni06F2 dx=-100 dy=0 dh=-100 dv=0 dx=0 dy=0 dh=0 dv=0
EndChar

StartChar: uni06F6
Encoding: 1782 1782 92
GlifName: uni06F_6
Width: 1078
GlyphClass: 2
Flags: HW
LayerCount: 2
Fore
SplineSet
585 1176 m 256
 444 1176 341 1093 340 1007 c 257
 341 908 472 878 665 868 c 257
 718 892 771 923 800 938 c 256
 849 964 920 1005 958 1015 c 257
 990 1021 1001 1005 993 959 c 258
 944 693 l 257
 734 602 501 377 242 -32 c 257
 117 72 l 258
 93.5752051738 91.4894292954 115 124 127 153 c 257
 200 313 314 491 416 621 c 257
 218 685 136 810 136 987 c 256
 136 1232 323 1455 539 1455 c 256
 657 1455 757 1414 849 1334 c 257
 780 1141 l 257
 706 1165 641 1176 585 1176 c 256
EndSplineSet
EndChar

StartChar: uniFB7B
Encoding: 64379 64379 101
GlifName: uniF_B_7B_
Width: 1337
GlyphClass: 2
Flags: HW
AnchorPoint: "Anchor-10" 662 1200 basechar 0
AnchorPoint: "Anchor-7" 707 -851 basechar 0
LayerCount: 2
Fore
SplineSet
668.5 -304.849609375 m 1
 548.43359375 -184.784179688 l 1
 668.5 -64.71875 l 1
 788.56640625 -184.784179688 l 1
 668.5 -304.849609375 l 1
800.564453125 -113.28125 m 1
 680.498046875 6.7841796875 l 1
 800.564453125 126.849609375 l 1
 920.630859375 6.7841796875 l 1
 800.564453125 -113.28125 l 1
536.435546875 -113.28125 m 1
 416.369140625 6.7841796875 l 1
 536.435546875 126.849609375 l 1
 656.501953125 6.7841796875 l 1
 536.435546875 -113.28125 l 1
EndSplineSet
Refer: 173 65186 N 1 0 0 1 0 0 2
EndChar

StartChar: uniFB8F
Encoding: 64399 64399 107
GlifName: uniF_B_8F_
Width: 2101
GlyphClass: 2
Flags: HW
AnchorPoint: "Anchor-10" 1201 1486 basechar 0
AnchorPoint: "Anchor-7" 803 -211 basechar 0
LayerCount: 2
Fore
SplineSet
1241 1055 m 257
 1363 945 1515 791 1701 590 c 257
 1838 443 1955 369 2090 369 c 258
 2103 369 l 258
 2120 369 2128 326 2128 240 c 258
 2128 142 l 258
 2128 47 2120 0 2103 0 c 258
 2087 0 l 258
 1889 0 1721 104 1563 312 c 257
 1488 100 1179 0 818 0 c 256
 415 0 89 117 89 484 c 256
 89 620 122 751 185 876 c 257
 313 833 l 257
 292 759 282 695 282 641 c 256
 282 418 516 366 833 366 c 256
 1082 366 1412 392 1412 486 c 256
 1412 551 1181 743 926 945 c 257
 989 1245 l 257
 1758 1516 l 257
 1788 1527 1793.75195312 1521.32910156 1788 1482 c 258
 1751 1229 l 257
 1241 1055 l 257
EndSplineSet
EndChar

StartChar: uniFB93
Encoding: 64403 64403 111
GlifName: uniF_B_93
Width: 2036
GlyphClass: 2
Flags: HW
AnchorPoint: "Anchor-10" 1247 1616 basechar 0
AnchorPoint: "Anchor-7" 803 -211 basechar 0
LayerCount: 2
Fore
SplineSet
1241 978 m 257
 1334 892 1467 770 1610 636 c 257
 1790 472 1948 369 2034 369 c 258
 2044 369 l 258
 2061 369 2069 326 2069 240 c 258
 2069 145 l 258
 2069 48 2061 0 2044 0 c 258
 2032 0 l 258
 1853 0 1677 101 1522 302 c 257
 1428 96 1159 0 818 0 c 256
 415 0 89 117 89 484 c 256
 89 620 122 751 185 876 c 257
 313 833 l 257
 292 759 282 695 282 641 c 256
 282 421 516 366 834 366 c 256
 1087 366 1377 393 1378 483 c 257
 1376 549 1145 715 926 869 c 257
 989 1168 l 257
 1758 1439 l 257
 1788 1450 1793.75195312 1444.32910156 1788 1405 c 258
 1751 1152 l 257
 1241 978 l 257
EndSplineSet
Refer: 273 -1 N 1.1342 0 0 1.1342 969 -653 2
EndChar

StartChar: uniFB94
Encoding: 64404 64404 112
GlifName: uniF_B_94
Width: 935
VWidth: 2200
GlyphClass: 2
Flags: HW
AnchorPoint: "Anchor-7" 334 -245 basechar 0
AnchorPoint: "Anchor-10" 353 1612 basechar 0
LayerCount: 2
Fore
SplineSet
337 977 m 257
 578 789 700 618 700 462 c 256
 700 148 494 0 122 0 c 262
 -5 0 l 258
 -42 0 -60 51 -60 154 c 258
 -60 224 l 258
 -60 321 -42 369 -5 369 c 258
 122 369 l 262
 348 369 491 389 491 472 c 256
 491 541 290 677 23 867 c 257
 85 1167 l 257
 854 1438 l 257
 884 1449 889.751953125 1443.32910156 884 1404 c 258
 847 1151 l 257
 337 977 l 257
EndSplineSet
Refer: 273 -1 N 1.1342 0 0 1.1342 69 -653 2
EndChar

StartChar: uniFB95
Encoding: 64405 64405 113
GlifName: uniF_B_95
Width: 1135
VWidth: 2200
GlyphClass: 2
Flags: HW
AnchorPoint: "Anchor-7" 334 -245 basechar 0
AnchorPoint: "Anchor-10" 353 1612 basechar 0
LayerCount: 2
Fore
SplineSet
337 977 m 257
 425 900 550 786 708 637 c 257
 904 458 1045 369 1130 369 c 258
 1140 369 l 258
 1157 369 1165 325 1165 237 c 258
 1165 142 l 258
 1165 47 1157 0 1140 0 c 258
 1128 0 l 258
 966 0 798 99 641 296 c 257
 600 110 394 0 123 0 c 262
 -5 0 l 258
 -42 0 -60 52 -60 158 c 258
 -60 228 l 258
 -60 322 -42 369 -5 369 c 258
 123 369 l 262
 348 369 485 391 485 472 c 256
 485 540 296 672 23 868 c 257
 85 1167 l 257
 854 1438 l 257
 884 1449 889.751953125 1443.32910156 884 1404 c 258
 847 1151 l 257
 337 977 l 257
EndSplineSet
Refer: 273 -1 N 1.1342 0 0 1.1342 69 -653 2
EndChar

StartChar: uniFB9F
Encoding: 64415 64415 115
GlifName: uniF_B_9F_
Width: 1465
GlyphClass: 2
Flags: HW
AnchorPoint: "Anchor-7" 451 -1000 basechar 0
AnchorPoint: "Anchor-10" 575 1014 basechar 0
LayerCount: 2
Fore
SplineSet
1315 42 m 257
 1296 -334 1083 -546 690 -547 c 257
 321 -546 91 -353 91 -3 c 256
 91 153 129 310 201 467 c 257
 342 422 l 257
 307 308 290 210 290 131 c 256
 290 -107 447 -196 691 -196 c 256
 932 -196 1132 -92 1132 47 c 256
 1132 113 1045 247 974 363 c 257
 1141 605 l 258
 1154 624 1168 621 1183 596 c 256
 1216 539 1259 467 1287 436 c 257
 1325 391 1379 369 1430 369 c 262
 1470 369 l 258
 1487 369 1495 326 1495 240 c 258
 1495 145 l 258
 1495 48 1487 0 1470 0 c 258
 1434 0 l 262
 1396 0 1350 14 1315 42 c 257
EndSplineSet
EndChar

StartChar: uniFBE8
Encoding: 64488 64488 118
GlifName: uniF_B_E_8
Width: 646
GlyphClass: 2
Flags: HW
AnchorPoint: "Anchor-7" 351 -250 basechar 0
AnchorPoint: "Anchor-10" 323 1251 basechar 0
LayerCount: 2
Fore
SplineSet
574 517 m 256
 574 210 416 0 113 0 c 258
 -5 0 l 258
 -42 0 -60 51 -60 154 c 258
 -60 224 l 258
 -60 321 -42 369 -5 369 c 258
 127 369 l 258
 254 369 361 380 361 448 c 256
 361 503 320 591 267 709 c 257
 419 903 l 258
 444 935 451 938 472 902 c 256
 539 791 574 662 574 517 c 256
EndSplineSet
EndChar

StartChar: uniFBE9
Encoding: 64489 64489 119
GlifName: uniF_B_E_9
Width: 728
GlyphClass: 2
Flags: HW
AnchorPoint: "Anchor-7" 351 -209 basechar 0
AnchorPoint: "Anchor-10" 377 1169 basechar 0
LayerCount: 2
Fore
SplineSet
-5 369 m 258
 103 369 l 258
 254 369 346 419 357 521 c 258
 374 681 l 257
 517 681 l 257
 535 524 l 258
 548 420 594 369 714 369 c 258
 733 369 l 258
 750 369 758 325 758 237 c 258
 758 142 l 258
 758 47 750 0 733 0 c 258
 712 0 l 258
 579 0 507 54 440 164 c 257
 367 54 242 0 98 0 c 258
 -5 0 l 258
 -42 0 -60 51 -60 154 c 258
 -60 224 l 258
 -60 321 -42 369 -5 369 c 258
EndSplineSet
EndChar

StartChar: uniFE73
Encoding: 65139 65139 127
GlifName: uniF_E_73
Width: 785
GlyphClass: 2
Flags: HW
AnchorPoint: "Anchor-10" 369 1242 basechar 0
AnchorPoint: "Anchor-7" 377 -188 basechar 0
LayerCount: 2
Fore
SplineSet
309 464 m 2
 309 275 439 180 699 180 c 2
 790 180 l 1
 790 3 l 1
 686 3 l 2
 296 3 101 150 101 444 c 2
 101 481 l 1
 309 481 l 1
 309 464 l 2
EndSplineSet
EndChar

StartChar: uniFE8E
Encoding: 65166 65166 153
GlifName: uniF_E_8E_
Width: 523
GlyphClass: 2
Flags: HW
AnchorPoint: "Anchor-7" 271 -220 basechar 0
AnchorPoint: "Anchor-10" 190 1560 basechar 0
LayerCount: 2
Fore
SplineSet
358 766 m 260
 360 473 362 369 508 369 c 262
 528 369 l 262
 545 369 553 325 553 237 c 262
 553 142 l 262
 553 47 545 0 528 0 c 262
 494 0 l 262
 139 0 119 265 116 646 c 260
 114 952 94 1180 58 1330 c 261
 285 1481 l 262
 328 1510 337 1503 341 1438 c 260
 350 1293 357 979 358 766 c 260
EndSplineSet
EndChar

StartChar: uniFEA2
Encoding: 65186 65186 173
GlifName: uniF_E_A_2
Width: 1337
GlyphClass: 2
Flags: HW
AnchorPoint: "Anchor-10" 662 1200 basechar 0
AnchorPoint: "Anchor-7" 707 -851 basechar 0
LayerCount: 2
Fore
SplineSet
850 385 m 257
 581 302 292 146 292 -107 c 256
 292 -295 452 -387 750 -387 c 256
 920 -387 1054 -374 1178 -355 c 256
 1230 -347 1220 -391 1200 -426 c 258
 1108 -590 l 258
 1074 -651 1024 -684 958 -690 c 256
 902 -696 837 -698 762 -698 c 257
 346 -698 119 -535 119 -128 c 256
 119 217 320 461 686 587 c 257
 581 610 445 637 397 637 c 256
 332 637 266 597 198 516 c 257
 78 579 l 257
 144 782 241 937 405 937 c 256
 465 937 602 904 826 835 c 257
 928 803 1085 758 1226 758 c 256
 1245 758 1255 755 1250 741 c 258
 1159 464 l 257
 1107 457 1056 449 1006 437 c 257
 1027 388 1123 369 1311 369 c 258
 1342 369 l 258
 1359 369 1367 325 1367 237 c 258
 1367 142 l 258
 1367 47 1359 0 1342 0 c 258
 1283 0 l 258
 1020 0 875 128 850 385 c 257
EndSplineSet
EndChar

StartChar: uniFEA3
Encoding: 65187 65187 174
GlifName: uniF_E_A_3
Width: 1333
GlyphClass: 2
Flags: HW
AnchorPoint: "Anchor-7" 566 -217 basechar 0
AnchorPoint: "Anchor-10" 548 1236 basechar 0
LayerCount: 2
Fore
SplineSet
196 530 m 257
 77 592 l 257
 153 805 260 971 458 971 c 256
 527 971 629 939 763 875 c 256
 998 764 1100 724 1260 724 c 256
 1286 724 1294 722 1288 704 c 258
 1208 440 l 257
 1110 415 933 330 675 185 c 257
 449 62 261 0 114 0 c 258
 -5 0 l 258
 -42 0 -60 51 -60 154 c 258
 -60 224 l 258
 -60 321 -42 369 -5 369 c 258
 149 369 l 258
 423 369 635 437 824 539 c 257
 774 555 692 581 618 608 c 256
 533 639 465 658 431 658 c 256
 340 658 265 614 196 530 c 257
EndSplineSet
EndChar

StartChar: uniFEA4
Encoding: 65188 65188 175
GlifName: uniF_E_A_4
Width: 1346
GlyphClass: 2
Flags: HW
AnchorPoint: "Anchor-10" 548 1236 basechar 0
AnchorPoint: "Anchor-7" 566 -217 basechar 0
LayerCount: 2
Fore
SplineSet
196 530 m 257
 77 592 l 257
 153 805 260 971 458 971 c 256
 527 971 629 939 763 875 c 256
 998 764 1100 724 1260 724 c 256
 1286 724 1294 722 1288 704 c 258
 1216 462 l 257
 1154 453 1084 432 1020 399 c 257
 1039 373 1078 368 1138 368 c 257
 1351 369 l 257
 1368 369 1376 325 1376 237 c 258
 1376 142 l 258
 1376 47 1368 0 1351 0 c 258
 1231 0 l 258
 1005 0 877 98 839 302 c 257
 619 165 337 0 114 0 c 258
 -5 0 l 258
 -42 0 -60 51 -60 154 c 258
 -60 224 l 258
 -60 321 -42 369 -5 369 c 258
 149 369 l 258
 423 369 634 438 824 539 c 257
 774 555 692 581 618 608 c 256
 533 639 465 658 431 658 c 256
 340 658 265 614 196 530 c 257
EndSplineSet
EndChar

StartChar: uniFEAA
Encoding: 65194 65194 181
GlifName: uniF_E_A_A_
Width: 1125
GlyphClass: 2
Flags: HW
AnchorPoint: "Anchor-7" 467 -254 basechar 0
AnchorPoint: "Anchor-10" 624 1353 basechar 0
LayerCount: 2
Fore
SplineSet
804 204 m 261
 709 68 584 0 418 0 c 256
 193 0 78 110 78 328 c 256
 78 377 89 439 110 512 c 257
 244 498 l 257
 245 462 l 258
 247 403 311 372 434 372 c 256
 579 372 685 402 685 466 c 260
 685 474 684 483 680 495 c 262
 531 932 l 261
 661 1098 l 262
 699 1146 705 1143 725 1085 c 262
 902 554 l 262
 943 431.000976562 1023 369 1112 369 c 258
 1130 369 l 258
 1147 369 1155 325 1155 237 c 258
 1155 142 l 258
 1155 47 1147 0 1130 0 c 258
 1105 0 l 258
 961 0 857 68 804 204 c 261
EndSplineSet
PairPos2: "'kern' Horizontal Kerning lookup 0 subtable 4" uniFB90 dx=-120 dy=0 dh=-120 dv=0 dx=0 dy=0 dh=0 dv=0
PairPos2: "'kern' Horizontal Kerning lookup 0 subtable 4" uni06A9 dx=-120 dy=0 dh=-120 dv=0 dx=0 dy=0 dh=0 dv=0
PairPos2: "'kern' Horizontal Kerning lookup 0 subtable 4" uniFB94 dx=-120 dy=0 dh=-120 dv=0 dx=0 dy=0 dh=0 dv=0
PairPos2: "'kern' Horizontal Kerning lookup 0 subtable 4" uni06AF dx=-120 dy=0 dh=-120 dv=0 dx=0 dy=0 dh=0 dv=0
EndChar

StartChar: uniFEAE
Encoding: 65198 65198 185
GlifName: uniF_E_A_E_
Width: 855
GlyphClass: 2
Flags: HW
AnchorPoint: "Anchor-10" 477 956.7 basechar 0
AnchorPoint: "Anchor-7" 362 -652 basechar 0
LayerCount: 2
Fore
SplineSet
703 36 m 1
 664.48828125 -262.36328125 460.161132812 -451.514648438 299 -533 c 256
 255.08984375 -555.202148438 185.51171875 -545.153320312 138 -519 c 258
 29 -459 l 258
 -114.887695312 -379.795898438 -37 -365 31 -337 c 256
 296.311523438 -227.75390625 521 -42 521 91 c 256
 521 142 467 221 341 379 c 257
 529 646 l 257
 543 628 612 525 667 453 c 256
 711 396 767 369 834 369 c 258
 854 369 l 258
 871 369 879 321 879 224 c 258
 879 142 l 258
 879 47 871 0 854 0 c 258
 829 0 l 258
 778 0 736 12 703 36 c 1
EndSplineSet
PairPos2: "'kern' Horizontal Kerning lookup 0 subtable 3" uni06C0 dx=-128 dy=0 dh=-128 dv=0 dx=0 dy=0 dh=0 dv=0
PairPos2: "'kern' Horizontal Kerning lookup 0 subtable 3" uni0621 dx=-128 dy=0 dh=-128 dv=0 dx=0 dy=0 dh=0 dv=0
PairPos2: "'kern' Horizontal Kerning lookup 0 subtable 2" uni0648 dx=-43 dy=0 dh=-43 dv=0 dx=0 dy=0 dh=0 dv=0
PairPos2: "'kern' Horizontal Kerning lookup 0 subtable 0" uniFB58 dx=20 dy=0 dh=20 dv=0 dx=0 dy=0 dh=0 dv=0
PairPos2: "'kern' Horizontal Kerning lookup 0 subtable 0" uni0644 dx=-43 dy=0 dh=-43 dv=0 dx=0 dy=0 dh=0 dv=0
PairPos2: "'kern' Horizontal Kerning lookup 0 subtable 0" uni0642 dx=-43 dy=0 dh=-43 dv=0 dx=0 dy=0 dh=0 dv=0
PairPos2: "'kern' Horizontal Kerning lookup 0 subtable 0" uni0632 dx=-43 dy=0 dh=-43 dv=0 dx=0 dy=0 dh=0 dv=0
PairPos2: "'kern' Horizontal Kerning lookup 0 subtable 0" uni0631 dx=-43 dy=0 dh=-43 dv=0 dx=0 dy=0 dh=0 dv=0
PairPos2: "'kern' Horizontal Kerning lookup 0 subtable 0" uniFB8A dx=-43 dy=0 dh=-43 dv=0 dx=0 dy=0 dh=0 dv=0
PairPos2: "'kern' Horizontal Kerning lookup 0 subtable 0" uni0698 dx=-43 dy=0 dh=-43 dv=0 dx=0 dy=0 dh=0 dv=0
PairPos2: "'kern' Horizontal Kerning lookup 0 subtable 0" uniFB7C dx=-128 dy=0 dh=-128 dv=0 dx=0 dy=0 dh=0 dv=0
PairPos2: "'kern' Horizontal Kerning lookup 0 subtable 0" uni06CC dx=-43 dy=0 dh=-43 dv=0 dx=0 dy=0 dh=0 dv=0
PairPos2: "'kern' Horizontal Kerning lookup 0 subtable 0" uniFEEB dx=-128 dy=0 dh=-128 dv=0 dx=0 dy=0 dh=0 dv=0
PairPos2: "'kern' Horizontal Kerning lookup 0 subtable 0" uniFEDF dx=-128 dy=0 dh=-128 dv=0 dx=0 dy=0 dh=0 dv=0
PairPos2: "'kern' Horizontal Kerning lookup 0 subtable 0" uniFB90 dx=-213 dy=0 dh=-213 dv=0 dx=0 dy=0 dh=0 dv=0
PairPos2: "'kern' Horizontal Kerning lookup 0 subtable 0" uni06A9 dx=-213 dy=0 dh=-213 dv=0 dx=0 dy=0 dh=0 dv=0
PairPos2: "'kern' Horizontal Kerning lookup 0 subtable 0" uni0649 dx=-43 dy=0 dh=-43 dv=0 dx=0 dy=0 dh=0 dv=0
PairPos2: "'kern' Horizontal Kerning lookup 0 subtable 0" uni0647 dx=-128 dy=0 dh=-128 dv=0 dx=0 dy=0 dh=0 dv=0
PairPos2: "'kern' Horizontal Kerning lookup 0 subtable 0" uniFEE7 dx=-128 dy=0 dh=-128 dv=0 dx=0 dy=0 dh=0 dv=0
PairPos2: "'kern' Horizontal Kerning lookup 0 subtable 0" uniFEE3 dx=-128 dy=0 dh=-128 dv=0 dx=0 dy=0 dh=0 dv=0
PairPos2: "'kern' Horizontal Kerning lookup 0 subtable 0" uni0645 dx=-128 dy=0 dh=-128 dv=0 dx=0 dy=0 dh=0 dv=0
PairPos2: "'kern' Horizontal Kerning lookup 0 subtable 0" uniFEDB dx=-213 dy=0 dh=-213 dv=0 dx=0 dy=0 dh=0 dv=0
PairPos2: "'kern' Horizontal Kerning lookup 0 subtable 0" uniFED7 dx=-128 dy=0 dh=-128 dv=0 dx=0 dy=0 dh=0 dv=0
PairPos2: "'kern' Horizontal Kerning lookup 0 subtable 0" uniFED3 dx=-128 dy=0 dh=-128 dv=0 dx=0 dy=0 dh=0 dv=0
PairPos2: "'kern' Horizontal Kerning lookup 0 subtable 0" uni0641 dx=-128 dy=0 dh=-128 dv=0 dx=0 dy=0 dh=0 dv=0
PairPos2: "'kern' Horizontal Kerning lookup 0 subtable 0" uniFECF dx=-128 dy=0 dh=-128 dv=0 dx=0 dy=0 dh=0 dv=0
PairPos2: "'kern' Horizontal Kerning lookup 0 subtable 0" uniFECB dx=-128 dy=0 dh=-128 dv=0 dx=0 dy=0 dh=0 dv=0
PairPos2: "'kern' Horizontal Kerning lookup 0 subtable 0" uniFEC7 dx=-128 dy=0 dh=-128 dv=0 dx=0 dy=0 dh=0 dv=0
PairPos2: "'kern' Horizontal Kerning lookup 0 subtable 0" uni0638 dx=-128 dy=0 dh=-128 dv=0 dx=0 dy=0 dh=0 dv=0
PairPos2: "'kern' Horizontal Kerning lookup 0 subtable 0" uniFEC3 dx=-128 dy=0 dh=-128 dv=0 dx=0 dy=0 dh=0 dv=0
PairPos2: "'kern' Horizontal Kerning lookup 0 subtable 0" uni0637 dx=-128 dy=0 dh=-128 dv=0 dx=0 dy=0 dh=0 dv=0
PairPos2: "'kern' Horizontal Kerning lookup 0 subtable 0" uniFEBF dx=-128 dy=0 dh=-128 dv=0 dx=0 dy=0 dh=0 dv=0
PairPos2: "'kern' Horizontal Kerning lookup 0 subtable 0" uni0636 dx=-128 dy=0 dh=-128 dv=0 dx=0 dy=0 dh=0 dv=0
PairPos2: "'kern' Horizontal Kerning lookup 0 subtable 0" uniFEBB dx=-128 dy=0 dh=-128 dv=0 dx=0 dy=0 dh=0 dv=0
PairPos2: "'kern' Horizontal Kerning lookup 0 subtable 0" uni0635 dx=-128 dy=0 dh=-128 dv=0 dx=0 dy=0 dh=0 dv=0
PairPos2: "'kern' Horizontal Kerning lookup 0 subtable 0" uniFEB7 dx=-128 dy=0 dh=-128 dv=0 dx=0 dy=0 dh=0 dv=0
PairPos2: "'kern' Horizontal Kerning lookup 0 subtable 0" uni0634 dx=-128 dy=0 dh=-128 dv=0 dx=0 dy=0 dh=0 dv=0
PairPos2: "'kern' Horizontal Kerning lookup 0 subtable 0" uniFEB3 dx=-128 dy=0 dh=-128 dv=0 dx=0 dy=0 dh=0 dv=0
PairPos2: "'kern' Horizontal Kerning lookup 0 subtable 0" uni0633 dx=-128 dy=0 dh=-128 dv=0 dx=0 dy=0 dh=0 dv=0
PairPos2: "'kern' Horizontal Kerning lookup 0 subtable 0" uni0630 dx=-128 dy=0 dh=-128 dv=0 dx=0 dy=0 dh=0 dv=0
PairPos2: "'kern' Horizontal Kerning lookup 0 subtable 0" uni062F dx=-128 dy=0 dh=-128 dv=0 dx=0 dy=0 dh=0 dv=0
PairPos2: "'kern' Horizontal Kerning lookup 0 subtable 0" uniFEA7 dx=-128 dy=0 dh=-128 dv=0 dx=0 dy=0 dh=0 dv=0
PairPos2: "'kern' Horizontal Kerning lookup 0 subtable 0" uniFEA3 dx=-128 dy=0 dh=-128 dv=0 dx=0 dy=0 dh=0 dv=0
PairPos2: "'kern' Horizontal Kerning lookup 0 subtable 0" uniFE9F dx=-128 dy=0 dh=-128 dv=0 dx=0 dy=0 dh=0 dv=0
PairPos2: "'kern' Horizontal Kerning lookup 0 subtable 0" uniFE9B dx=-128 dy=0 dh=-128 dv=0 dx=0 dy=0 dh=0 dv=0
PairPos2: "'kern' Horizontal Kerning lookup 0 subtable 0" uni062B dx=-128 dy=0 dh=-128 dv=0 dx=0 dy=0 dh=0 dv=0
PairPos2: "'kern' Horizontal Kerning lookup 0 subtable 0" uniFE97 dx=-128 dy=0 dh=-128 dv=0 dx=0 dy=0 dh=0 dv=0
PairPos2: "'kern' Horizontal Kerning lookup 0 subtable 0" uni062A dx=-128 dy=0 dh=-128 dv=0 dx=0 dy=0 dh=0 dv=0
PairPos2: "'kern' Horizontal Kerning lookup 0 subtable 0" uni0629 dx=-128 dy=0 dh=-128 dv=0 dx=0 dy=0 dh=0 dv=0
PairPos2: "'kern' Horizontal Kerning lookup 0 subtable 0" uni0628 dx=-128 dy=0 dh=-128 dv=0 dx=0 dy=0 dh=0 dv=0
PairPos2: "'kern' Horizontal Kerning lookup 0 subtable 0" uni0627 dx=-150 dy=0 dh=-150 dv=0 dx=0 dy=0 dh=0 dv=0
PairPos2: "'kern' Horizontal Kerning lookup 0 subtable 0" uni0622 dx=-150 dy=0 dh=-150 dv=0 dx=0 dy=0 dh=0 dv=0
PairPos2: "'kern' Horizontal Kerning lookup 0 subtable 0" uniFB94 dx=-235 dy=0 dh=-235 dv=0 dx=0 dy=0 dh=0 dv=0
PairPos2: "'kern' Horizontal Kerning lookup 0 subtable 0" uni06AF dx=-235 dy=0 dh=-235 dv=0 dx=0 dy=0 dh=0 dv=0
PairPos2: "'kern' Horizontal Kerning lookup 0 subtable 0" uniFB56 dx=-128 dy=0 dh=-128 dv=0 dx=0 dy=0 dh=0 dv=0
PairPos2: "'kern' Horizontal Kerning lookup 0 subtable 0" uni067E dx=-128 dy=0 dh=-128 dv=0 dx=0 dy=0 dh=0 dv=0
EndChar

StartChar: uniFEB2
Encoding: 65202 65202 189
GlifName: uniF_E_B_2
Width: 2463
GlyphClass: 2
Flags: HW
AnchorPoint: "Anchor-7" 694 -748 basechar 0
AnchorPoint: "Anchor-10" 1689 1027.7 basechar 0
LayerCount: 2
Fore
SplineSet
1458 0 m 260
 1411 0 1363 14 1315 42 c 257
 1296 -332 1083 -546 693 -547 c 257
 321 -546 91 -355 91 -3 c 256
 91 153 128 310 201 467 c 257
 341 422 l 257
 306 308 289 210 289 131 c 256
 289 -109 448 -196 695 -196 c 256
 937 -196 1131 -86 1131 49 c 256
 1131 107 1044 249 973 363 c 257
 1140 605 l 258
 1153 624 1167 622 1180 598 c 256
 1214 538 1246 486 1283 449 c 257
 1331 396 1384 370 1448 370 c 256
 1543 370 1600 416 1608 507 c 258
 1622 656 l 257
 1760 656 l 257
 1776 513 l 258
 1787 417 1840 370 1934 370 c 256
 2023 370 2071 420 2079 522 c 257
 2091 681 l 257
 2241 681 l 257
 2251 524 l 257
 2259 420 2323 369 2442 369 c 258
 2471 369 l 258
 2488 369 2496 327 2496 243 c 258
 2496 142 l 258
 2496 47 2488 0 2471 0 c 258
 2441 0 l 258
 2316 0 2225 51 2167 155 c 257
 2103 51 2027 0 1940 0 c 256
 1831 0 1746 53 1686 160 c 257
 1619 53 1543 0 1458 0 c 260
EndSplineSet
EndChar

StartChar: uniFEB3
Encoding: 65203 65203 190
GlifName: uniF_E_B_3
Width: 1533
GlyphClass: 2
Flags: HW
AnchorPoint: "Anchor-7" 833 -216 basechar 0
AnchorPoint: "Anchor-10" 859 1027.7 basechar 0
LayerCount: 2
Fore
SplineSet
1105 370 m 256
 1181 370 1247 399 1247 468 c 256
 1247 527 1213 561 1151 681 c 257
 1303 874 l 258
 1326 904 1335 906 1356 873 c 256
 1425 762 1458 640 1458 507 c 256
 1458 280 1334 0 1105 0 c 256
 1000 0 919 53 859 160 c 257
 792 53 716 0 629 0 c 256
 515 0 431 51 374 154 c 257
 294 51 186 0 49 0 c 258
 -5 0 l 258
 -42 0 -60 51 -60 154 c 258
 -60 224 l 258
 -60 321 -42 369 -5 369 c 258
 58 369 l 258
 207 369 285 416 295 509 c 257
 309 656 l 257
 448 656 l 257
 462 514 l 258
 472 418 528 371 629 371 c 256
 722 371 772 416 781 507 c 257
 794 656 l 257
 933 656 l 257
 949 513 l 258
 960 417 1012 370 1105 370 c 256
EndSplineSet
EndChar

StartChar: uniFEB4
Encoding: 65204 65204 191
GlifName: uniF_E_B_4
Width: 1639
GlyphClass: 2
Flags: HW
AnchorPoint: "Anchor-7" 853 -213 basechar 0
AnchorPoint: "Anchor-10" 857 1028.7 basechar 0
LayerCount: 2
Fore
SplineSet
1108 0 m 256
 998 0 919 53 859 160 c 257
 792 53 712 0 626 0 c 256
 512 0 431 51 374 154 c 257
 294 51 186 0 49 0 c 258
 -5 0 l 258
 -42 0 -60 51 -60 154 c 258
 -60 224 l 258
 -60 321 -42 369 -5 369 c 258
 58 369 l 258
 207 369 285 416 295 509 c 257
 309 656 l 257
 448 656 l 257
 462 514 l 258
 472 418 528 371 629 371 c 256
 722 371 772 416 781 507 c 257
 794 656 l 257
 933 656 l 257
 949 513 l 258
 960 417 1012 370 1107 370 c 256
 1195 370 1244 420 1252 522 c 257
 1264 681 l 257
 1413 681 l 257
 1424 523 l 258
 1432 420 1495 369 1615 369 c 258
 1644 369 l 258
 1661 369 1669 325 1669 237 c 258
 1669 142 l 258
 1669 47 1661 0 1644 0 c 258
 1614 0 l 258
 1489 0 1398 51 1339 155 c 257
 1275 51 1195 0 1108 0 c 256
EndSplineSet
EndChar

StartChar: uniFEBA
Encoding: 65210 65210 197
GlifName: uniF_E_B_A_
Width: 2649
GlyphClass: 2
Flags: HW
AnchorPoint: "Anchor-7" 694 -748 basechar 0
AnchorPoint: "Anchor-10" 2093 1225 basechar 0
LayerCount: 2
Fore
SplineSet
1315 40 m 261
 1296 -338 1081 -546 685 -547 c 257
 320 -546 91 -351 91 -3 c 256
 91 153 129 310 201 467 c 257
 342 422 l 257
 307 308 290 210 290 131 c 256
 290 -106 449 -196 691 -196 c 256
 948 -196 1132 -84 1132 45 c 256
 1132 101 1046 247 973 363 c 257
 1139 604 l 258
 1153 623 1166 621 1182 596 c 258
 1247 496 l 258
 1294 423 1368 373 1444 372 c 257
 1615 601 1912 919 2188 919 c 256
 2391 919 2526 794 2526 574 c 256
 2526 493 2506 426 2480 369 c 257
 2654 369 l 258
 2671 369 2679 325 2679 237 c 258
 2679 142 l 258
 2679 47 2671 -2.08189955855e-15 2654 0 c 258
 2612 0 l 258
 2501 0 2366 19 2259 115 c 257
 2098 30 1967 0 1806 0 c 258
 1584 0 l 258
 1474 0 1384 14 1315 40 c 261
1621 370 m 257
 1911 370 l 258
 2145 370 2321 376 2321 469 c 256
 2321 566 2227 614 2100 614 c 256
 1954 614 1781 523 1621 370 c 257
EndSplineSet
EndChar

StartChar: uniFEBB
Encoding: 65211 65211 198
GlifName: uniF_E_B_B_
Width: 1692
GlyphClass: 2
Flags: HW
AnchorPoint: "Anchor-7" 879 -239 basechar 0
AnchorPoint: "Anchor-10" 1168 1214 basechar 0
LayerCount: 2
Fore
SplineSet
1271 917 m 256
 1475 917 1610 792 1609 571 c 257
 1609 205 1282 0 890 0 c 258
 667 0 l 258
 539 0 420 47 320 160 c 261
 227 47 130 0 28 0 c 258
 -5 0 l 258
 -42 0 -60 51 -60 154 c 258
 -60 224 l 258
 -60 321 -42 369 -5 369 c 258
 16 369 l 258
 143 369 213 419 226 521 c 258
 245 681 l 257
 388 681 l 257
 409 524 l 258
 421 430 464 378 527 370 c 257
 696 601 1006 917 1271 917 c 256
704 369 m 257
 995 369 l 258
 1228 369 1404 374 1404 467 c 256
 1404 565 1309 613 1183 613 c 256
 1038 613 864 522 704 369 c 257
EndSplineSet
EndChar

StartChar: uniFEBC
Encoding: 65212 65212 199
GlifName: uniF_E_B_C_
Width: 1728
GlyphClass: 2
Flags: HW
AnchorPoint: "Anchor-7" 879 -239 basechar 0
AnchorPoint: "Anchor-10" 1160 1224 basechar 0
LayerCount: 2
Fore
SplineSet
705 369 m 261
 996 369 l 262
 1229 369 1405 374 1405 467 c 260
 1405 565 1310 613 1184 613 c 260
 1044 613 867 525 705 369 c 261
1272 917 m 260
 1476 917 1611 792 1611 572 c 260
 1611 493 1595 427 1569 369 c 261
 1733 369 l 262
 1750 369 1758 325 1758 237 c 262
 1758 142 l 262
 1758 47 1750 0 1733 0 c 262
 1697 0 l 262
 1586 0 1451 18 1344 114 c 261
 1183 29 1052 -1.97168134663e-14 891 0 c 262
 669 0 l 262
 541 0 420 47 320 160 c 261
 226 47 129 0 28 0 c 262
 -5 0 l 262
 -42 0 -60 51 -60 154 c 262
 -60 224 l 262
 -60 321 -42 369 -5 369 c 262
 16 369 l 262
 143 369 213 419 226 521 c 262
 245 681 l 261
 388 681 l 261
 409 524 l 262
 421 430 465 378 528 370 c 261
 700 609 1016 917 1272 917 c 260
EndSplineSet
EndChar

StartChar: uniFEC2
Encoding: 65218 65218 205
GlifName: uniF_E_C_2
Width: 1582
GlyphClass: 2
Flags: HW
AnchorPoint: "Anchor-10" 460 1560 basechar 0
AnchorPoint: "Anchor-7" 687 -212 basechar 0
LayerCount: 2
Fore
SplineSet
241 0 m 261
 49 274 l 257
 -11 354 18 369 80 369 c 258
 399 369 l 257
 399 376 399 384 399 392 c 257
 393 679 374 1104 337 1326 c 257
 570 1482 l 257
 616 1514 626 1518 626 1444 c 258
 626 635 l 257
 813 824 981 919 1130 919 c 256
 1335 919 1468 792 1468 572 c 256
 1468 498 1453 430 1425 369 c 257
 1587 369 l 258
 1604 369 1612 325 1612 237 c 258
 1612 142 l 258
 1612 47 1604 0 1587 0 c 258
 1555 0 l 258
 1444 0 1309 19 1202 115 c 257
 1041 30 910 0 749 0 c 258
 241 0 l 261
1263 469 m 256
 1263 549 1192 614 1042 614 c 256
 895 614 723 523 563 370 c 257
 853 370 l 258
 1132 370 1263 385 1263 469 c 256
EndSplineSet
EndChar

StartChar: uniFEC3
Encoding: 65219 65219 206
GlifName: uniF_E_C_3
Width: 1306
GlyphClass: 2
Flags: HW
AnchorPoint: "Anchor-10" 220 1560 basechar 0
AnchorPoint: "Anchor-7" 493 -220 basechar 0
LayerCount: 2
Fore
SplineSet
1018 469 m 256
 1018 549 947 614 797 614 c 256
 650 614 478 523 318 370 c 257
 608 370 l 258
 887 370 1018 385 1018 469 c 256
-5 0 m 258
 -42 0 -60 51 -60 154 c 258
 -60 224 l 258
 -60 321 -42 369 -5 369 c 258
 154 369 l 257
 154 376 154 383 154 391 c 257
 148 678 129 1104 92 1326 c 257
 324 1482 l 257
 371 1514 381 1518 381 1444 c 258
 381 635 l 257
 568 824 736 919 885 919 c 256
 1090 919 1223 792 1223 572 c 256
 1223 207 894 0 504 0 c 258
 -5 0 l 258
EndSplineSet
EndChar

StartChar: uniFEC4
Encoding: 65220 65220 207
GlifName: uniF_E_C_4
Width: 1335
GlyphClass: 2
Flags: HW
AnchorPoint: "Anchor-10" 220 1560 basechar 0
AnchorPoint: "Anchor-7" 498 -216 basechar 0
LayerCount: 2
Fore
SplineSet
-5 0 m 262
 -42 0 -60 51 -60 154 c 258
 -60 224 l 258
 -60 321 -42 369 -5 369 c 258
 154 369 l 257
 154 376 154 381 154 391 c 257
 148 678 129 1104 92 1326 c 257
 324 1482 l 258
 371 1514 381 1518 381 1444 c 258
 381 635 l 257
 568 824 736 919 885 919 c 256
 1090 919 1223 792 1223 572 c 256
 1223 497 1208 430 1180 369 c 257
 1344 369 l 258
 1361 369 1369 325 1369 237 c 258
 1369 142 l 258
 1369 47 1361 0 1344 0 c 258
 1310 0 l 258
 1199 0 1064 19 957 115 c 257
 796 30 665 0 504 0 c 258
 -5 0 l 262
1018 469 m 256
 1018 549 947 614 797 614 c 256
 650 614 478 523 318 370 c 257
 608 370 l 258
 887 370 1018 385 1018 469 c 256
EndSplineSet
EndChar

StartChar: uniFECA
Encoding: 65226 65226 213
GlifName: uniF_E_C_A_
Width: 1282
GlyphClass: 2
Flags: HW
AnchorPoint: "Anchor-7" 707 -851 basechar 0
AnchorPoint: "Anchor-10" 660 1215 basechar 0
LayerCount: 2
Fore
SplineSet
718 921 m 256
 951 921 1069 862 1069 745 c 256
 1069 647 1017 557 913 473 c 257
 928 399 1032 369 1247 369 c 258
 1287 369 l 258
 1304 369 1312 325 1312 237 c 258
 1312 142 l 258
 1312 47 1304 0 1287 0 c 258
 1258 0 l 258
 957 0 788 110 732 332 c 257
 432 220 266 73 266 -110 c 256
 266 -295 436 -387 740 -387 c 256
 897 -387 1033 -373 1151 -355 c 256
 1206 -347 1194 -390 1174 -426 c 258
 1082 -591 l 257
 1054 -639 1016 -664 968 -678 c 257
 913 -697 844 -698 759 -698 c 256
 341 -698 92 -543 92 -139 c 256
 92 179 274 421 625 592 c 257
 592 618 488 643 314 666 c 257
 314 837 l 257
 405 892 540 921 718 921 c 256
EndSplineSet
EndChar

StartChar: uniFECB
Encoding: 65227 65227 214
GlifName: uniF_E_C_B_
Width: 1032
GlyphClass: 2
Flags: HW
AnchorPoint: "Anchor-7" 498 -223 basechar 0
AnchorPoint: "Anchor-10" 502 1275 basechar 0
LayerCount: 2
Fore
SplineSet
125 587 m 256
 125 794 301 1026 530 1026 c 257
 668 1026 784 967 868 863 c 257
 807 694 l 257
 716 731 637 748 568 748 c 256
 419 748 312 638 312 580 c 256
 312 548 450 423 538 413 c 257
 889 496 l 257
 933 507 957 494 948 454 c 258
 885 177 l 257
 575 94 247 0 55 0 c 258
 -5 0 l 258
 -42 0 -60 51 -60 154 c 258
 -60 224 l 258
 -60 321 -42 369 -5 369 c 258
 202 369 l 257
 156 438 125 513 125 587 c 256
EndSplineSet
EndChar

StartChar: uniFECC
Encoding: 65228 65228 215
GlifName: uniF_E_C_C_
Width: 959
GlyphClass: 2
Flags: HW
AnchorPoint: "Anchor-7" 484 -222 basechar 0
AnchorPoint: "Anchor-10" 500 1196 basechar 0
LayerCount: 2
Fore
SplineSet
535 874 m 256
 768 874 884 815 884 697 c 256
 884 630 819 544 708 440 c 261
 772 395 849 369 924 369 c 262
 964 369 l 258
 981 369 989 325 989 237 c 258
 989 142 l 258
 989 47 981 0 964 0 c 258
 921 0 l 258
 765 0 668 57 559 182 c 257
 431 57 265 0 81 0 c 258
 -5 0 l 258
 -42 0 -60 51 -60 154 c 258
 -60 224 l 258
 -60 321 -42 369 -5 369 c 258
 109 369 l 262
 302 369 405 394 472 444 c 257
 414 545 299 603 129 619 c 257
 129 790 l 257
 220 846 355 874 535 874 c 256
EndSplineSet
EndChar

StartChar: uniFEDA
Encoding: 65242 65242 229
GlifName: uniF_E_D_A_
Width: 1941
GlyphClass: 2
Flags: HW
AnchorPoint: "Anchor-10" 970 1415 basechar 0
AnchorPoint: "Anchor-7" 892 -208 basechar 0
LayerCount: 2
Fore
SplineSet
891 748 m 4
 965 748 1076 765 1076 824 c 4
 1076 854 1031 878 940 898 c 4
 827 922 771 987 771 1095 c 4
 771 1223 878 1297 1089 1326 c 4
 1123 1332 1142 1321 1132 1291 c 6
 1096 1187 l 5
 933 1171 850 1137 850 1087 c 4
 850 1057 895 1034 986 1018 c 4
 1104 997 1166 941 1166 824 c 4
 1166 678 1043 610 887 610 c 4
 810 610 745 621 671 645 c 5
 684 786 l 5
 756 761 825 748 891 748 c 4
1534 618 m 256
 1534 769 1511 1156 1486 1325 c 257
 1728 1481 l 258
 1769 1508 1773 1506 1773 1441 c 258
 1773 727 l 258
 1773 522 1821 382 1916 382 c 258
 1946 382 l 257
 1963 383 1971 334 1971 237 c 258
 1971 142 l 258
 1971 47 1963 0 1946 0 c 258
 1919 0 l 258
 1782 0 1685 65 1626 187 c 257
 1491 48 1233 0 846 0 c 256
 422 0 89 106 89 484 c 256
 89 624 122 758 188 886 c 257
 307 839 l 257
 286 763 275 697 275 642 c 257
 275 416 517 366 858 366 c 256
 1228 366 1418 399 1492 456 c 256
 1533 488 1534 546 1534 618 c 256
EndSplineSet
EndChar

StartChar: uniFEDB
Encoding: 65243 65243 230
GlifName: uniF_E_D_B_
Width: 940
GlyphClass: 2
Flags: HW
AnchorPoint: "Anchor-7" 305 -238 basechar 0
AnchorPoint: "Anchor-10" 271 1519 basechar 0
LayerCount: 2
Fore
SplineSet
-5 0 m 262
 -42 0 -60 51 -60 154 c 262
 -60 224 l 262
 -60 321 -42 369 -5 369 c 262
 111 369 l 262
 332 369 512 385 513 487 c 261
 513 548 319 712 21 945 c 261
 85 1245 l 261
 854 1516 l 261
 884 1527 889.751644284 1521.32881091 884 1482 c 262
 847 1229 l 261
 337 1055 l 261
 595 845 723 657 723 487 c 260
 723 145 485 0 115 0 c 262
 -5 0 l 262
EndSplineSet
EndChar

StartChar: uniFEDC
Encoding: 65244 65244 231
GlifName: uniF_E_D_C_
Width: 1192
GlyphClass: 2
Flags: HW
AnchorPoint: "Anchor-7" 315 -221 basechar 0
AnchorPoint: "Anchor-10" 303 1491 basechar 0
LayerCount: 2
Fore
SplineSet
337 1055 m 257
 424 978 578 824 797 590 c 256
 935 443 1049 369 1181 369 c 258
 1197 369 l 258
 1214 369 1222 325 1222 237 c 258
 1222 142 l 258
 1222 47 1214 0 1197 0 c 258
 1181 0 l 258
 986 0 822 102 666 304 c 257
 579 101 404 0 114 0 c 262
 -5 0 l 258
 -42 0 -60 51 -60 154 c 258
 -60 224 l 258
 -60 321 -42 369 -5 369 c 258
 111 369 l 262
 326 369 505 381 505 488 c 256
 505 555 314 718 21 945 c 257
 85 1245 l 257
 854 1516 l 257
 884 1527 889.751953125 1521.32910156 884 1482 c 258
 847 1229 l 257
 337 1055 l 257
EndSplineSet
EndChar

StartChar: uniFEDE
Encoding: 65246 65246 233
GlifName: uniF_E_D_E_
Width: 1433
GlyphClass: 2
Flags: HW
AnchorPoint: "Anchor-10" 566 1010 basechar 0
AnchorPoint: "Anchor-7" 659 -722 basechar 0
LayerCount: 2
Fore
SplineSet
668 -531 m 256
 314 -531 85 -324 85 14 c 256
 85 175 123 331 195 484 c 257
 335 439 l 257
 301 324 283 227 283 147 c 256
 283 -83 437 -179 674 -179 c 256
 883 -179 1058 -103 1058 99 c 256
 1058 286 1006 711 947 1324 c 257
 1169 1470 l 257
 1219 1504 1236 1500 1238 1428 c 258
 1263 606 l 257
 1267 448 1319 369 1412 369 c 258
 1438 369 l 258
 1455 369 1463 325 1463 237 c 258
 1463 142 l 258
 1463 47 1455 0 1438 0 c 258
 1408 0 l 258
 1347 0 1289 17 1253 48 c 257
 1243 -315 1045 -531 668 -531 c 256
EndSplineSet
EndChar

StartChar: uniFEDF
Encoding: 65247 65247 234
GlifName: uniF_E_D_F_
Width: 586
GlyphClass: 2
Flags: HW
AnchorPoint: "Anchor-10" 270 1560 basechar 0
AnchorPoint: "Anchor-7" 183 -242 basechar 0
LayerCount: 2
Fore
SplineSet
-5 369 m 258
 17 369 l 258
 180 369 215 398 215 544 c 256
 215 768 188 1011 144 1325 c 257
 373 1477 l 258
 420 1509 434 1518 436 1444 c 256
 446 1149 461 814 461 559 c 256
 461 215 335 0 18 0 c 258
 -5 0 l 258
 -42 0 -60 51 -60 154 c 258
 -60 224 l 258
 -60 321 -42 369 -5 369 c 258
EndSplineSet
EndChar

StartChar: uniFEE0
Encoding: 65248 65248 235
GlifName: uniF_E_E_0
Width: 651
GlyphClass: 2
Flags: HW
AnchorPoint: "Anchor-10" 310 1560 basechar 0
AnchorPoint: "Anchor-7" 295 -238 basechar 0
LayerCount: 2
Fore
SplineSet
-5 369 m 258
 29 369 l 258
 207 369 225 441 225 611 c 256
 225 860 201 1095 175 1326 c 257
 414 1482 l 258
 456 1510 467 1508 467 1443 c 258
 467 617 l 257
 468 424 478 369 621 369 c 258
 656 369 l 258
 673 369 681 325 681 237 c 258
 681 142 l 258
 681 47 673 0 656 0 c 258
 610 0 l 258
 475 0 384 54 326 162 c 257
 251 54 153 0 44 0 c 258
 -5 0 l 258
 -42 0 -60 51 -60 154 c 258
 -60 224 l 258
 -60 321 -42 369 -5 369 c 258
EndSplineSet
EndChar

StartChar: uniFEE2
Encoding: 65250 65250 237
GlifName: uniF_E_E_2
Width: 1281
GlyphClass: 2
Flags: HW
AnchorPoint: "Anchor-7" 227 -758 basechar 0
AnchorPoint: "Anchor-10" 623 1141 basechar 0
LayerCount: 2
Fore
SplineSet
820 95 m 257
 893 95 946 112 947 174 c 257
 947 197.682142659 931.93359375 239.857421875 875 282 c 2
 671 427 l 257
 669 389 667 338 667 304 c 256
 667 173 693 96 820 95 c 257
1272 369 m 258
 1286 369 l 258
 1303 369 1311 325 1311 237 c 258
 1311 142 l 258
 1311 47 1303 0 1286 0 c 258
 1268 0 l 258
 1210 0 1154 22 1101 66 c 257
 1048 -110 948 -203 809 -203 c 257
 584 -202 490 -50 490 230 c 256
 490 265 491 300 492 336 c 257
 409 307 345 259 301 190 c 257
 315 -297 l 257
 319 -408 278 -505 193 -592 c 257
 126 -662 108 -650 104 -576 c 256
 96 -395 87 -155 87 29 c 256
 87 374 200 566 529 634 c 257
 550 732 575 831 639 784 c 258
 1121 426 l 258
 1173 388 1223 369 1272 369 c 258
EndSplineSet
EndChar

StartChar: uniFEE3
Encoding: 65251 65251 238
GlifName: uniF_E_E_3
Width: 1042
GlyphClass: 2
Flags: HW
AnchorPoint: "Anchor-7" 532 -263 basechar 0
AnchorPoint: "Anchor-10" 560 1154 basechar 0
LayerCount: 2
Fore
SplineSet
-5 0 m 258
 -42 0 -60 51 -60 154 c 258
 -60 224 l 258
 -60 321 -42 369 -5 369 c 258
 25 369 l 258
 106 369 204 411 268 502 c 260
 386 668 490 814 629 814 c 260
 827 814 959 565 959 336 c 260
 959 126 794 -26 693 -26 c 260
 596 -26 466 40 316 171 c 261
 221 57 107 0 13 0 c 258
 -5 0 l 258
709 304 m 260
 749 304 782 323 782 364 c 260
 782 448 702 567 630 567 c 260
 570 567 520 503 479 444 c 261
 578 351 654 304 709 304 c 260
EndSplineSet
EndChar

StartChar: uniFEE4
Encoding: 65252 65252 239
GlifName: uniF_E_E_4
Width: 1135
GlyphClass: 2
Flags: HW
AnchorPoint: "Anchor-7" 519 -275 basechar 0
AnchorPoint: "Anchor-10" 589 1104 basechar 0
LayerCount: 2
Fore
SplineSet
460 385 m 257
 548 305 634 253 690 253 c 256
 729 253 770 279 770 318 c 256
 770 401 673 513 606 513 c 256
 557 513 497 434 460 385 c 257
-5 369 m 258
 25 369 l 258
 127 369 207 405 265 478 c 256
 368 606 484 747 617 747 c 256
 767 747 858 609 943 455 c 256
 975 397 1028 369 1122 369 c 262
 1140 369 l 262
 1157 369 1165 321 1165 224 c 262
 1165 142 l 262
 1165 47 1157 0 1140 0 c 262
 1116 0 l 262
 1042 0 974 35 895 103 c 257
 855 31 768 -75 662 -75 c 256
 562 -75 437 -9 290 123 c 257
 226 41 136 0 21 0 c 258
 -5 0 l 258
 -42 0 -60 51 -60 154 c 258
 -60 224 l 258
 -60 321 -42 369 -5 369 c 258
EndSplineSet
EndChar

StartChar: uniFEEA
Encoding: 65258 65258 245
GlifName: uniF_E_E_A_
Width: 1018
GlyphClass: 2
Flags: HW
AnchorPoint: "Anchor-7" 458 -210 basechar 0
AnchorPoint: "Anchor-10" 568 1352 basechar 0
LayerCount: 2
Fore
SplineSet
521 477 m 261
 548 477 575 478 603 479 c 261
 550 716 l 261
 395 668 256 607 256 545 c 260
 256 491 389 477 521 477 c 261
1023 0 m 262
 1011 0 l 262
 840 0 718 87 652 254 c 261
 496 111 l 261
 372 129 127.995260347 145.443632527 98 240 c 260
 84.8000999192 281.611060821 83 366.1820064 83 454 c 260
 83 686 156 765 504 929 c 261
 487 1012 l 261
 617 1158 l 261
 662 1204 671 1206 686 1130 c 262
 799 532 l 262
 819 423 907 369 1007 369 c 262
 1023 369 l 262
 1040 369 1048 325 1048 237 c 262
 1048 142 l 262
 1048 47 1040 0 1023 0 c 262
EndSplineSet
EndChar

StartChar: uniFEEB
Encoding: 65259 65259 246
GlifName: uniF_E_E_B_
Width: 1259
GlyphClass: 2
Flags: HW
AnchorPoint: "Anchor-7" 546 -226 basechar 0
AnchorPoint: "Anchor-10" 549 1411 basechar 0
LayerCount: 2
Fore
SplineSet
629 692 m 260
 629 758 574 802 502 802 c 260
 448 802 328 729 328 645 c 260
 328 587 415 539 534 508 c 261
 583 541 629 613 629 692 c 260
783 679 m 261
 779 584 749 508 694 448 c 261
 810 404 873 382 943 368 c 261
 968 404 980 444 980 477 c 260
 980 561 895 625 783 679 c 261
935 90 m 260
 826 90 687 120 520 176 c 261
 390 59 220 0 48 0 c 262
 -5 0 l 262
 -42 0 -60 51 -60 154 c 262
 -60 224 l 262
 -60 321 -42 369 -5 369 c 260
 72 369 165 369 239 370 c 261
 172 408 138 468 138 550 c 260
 138 699 236 850 352 933 c 261
 250 981 l 261
 331 1234 l 261
 701 1047 l 262
 996.316060864 893.754908957 1176 754 1176 513 c 260
 1176 349 1045 90 935 90 c 260
EndSplineSet
EndChar

StartChar: uniFEEC
Encoding: 65260 65260 247
GlifName: uniF_E_E_C_
Width: 918
GlyphClass: 2
Flags: HW
AnchorPoint: "Anchor-7" 519 -744 basechar 0
AnchorPoint: "Anchor-10" 493 1238 basechar 0
LayerCount: 2
Fore
SplineSet
334 372 m 261
 536 383 597 421 597 488 c 260
 597 527 549 592 444 674 c 261
 384 589 349 457 334 372 c 261
745 548 m 260
 745 260 585 59 353 2 c 261
 410 -99 472 -171 538 -215 c 261
 570 64 725 369 907 369 c 262
 923 369 l 262
 940 369 948 325 948 237 c 262
 948 142 l 262
 948 47 940 0 923 0 c 262
 899 0 l 262
 774.767365293 0 735.19013491 -59.0832251984 735.19013491 -144.82222134 c 4
 735.19013491 -208.318954643 756.89671355 -286.435346336 782 -366 c 261
 583 -580 l 261
 363 -422 233 -229 174 0 c 261
 -5 0 l 262
 -42 0 -60 51 -60 154 c 262
 -60 224 l 262
 -60 321 -42 369 -5 369 c 261
 166 368 l 261
 189 544 349 972 464 972 c 260
 555 972 745 755 745 548 c 260
EndSplineSet
EndChar

StartChar: uniFEEE
Encoding: 65262 65262 249
GlifName: uniF_E_E_E_
Width: 835
GlyphClass: 2
Flags: HW
AnchorPoint: "Anchor-10" 424 1067 basechar 0
AnchorPoint: "Anchor-7" 362 -652 basechar 0
LayerCount: 2
Fore
SplineSet
421 361 m 256
 471 361 524 361 575 361 c 257
 543 476 478 545 384 546 c 257
 319 545 258 502 258 429 c 256
 258 365 323 361 421 361 c 256
68 -337 m 256
 281 -249 469 -107 531 0 c 1
 261 1 83 61 83 304 c 256
 83 532 199 820 418 820 c 256
 623 820 728 600 743 369 c 257
 840 369 l 258
 857 369 865 325 865 237 c 258
 865 142 l 258
 865 47 857 -2.08189955855e-15 840 0 c 258
 729.661132812 0 l 257
 664.497727772 -303.295412054 481.211914062 -460.393554688 336 -533 c 256
 292 -555 222.51171875 -545.153320312 175 -519 c 258
 66 -459 l 258
 -78 -380 0.033203125 -365.080078125 68 -337 c 256
EndSplineSet
EndChar

StartChar: uniFEFB
Encoding: 65275 65275 262
GlifName: uniF_E_F_B_
Width: 1231
GlyphClass: 3
Flags: HW
AnchorPoint: "Anchor-9" 204 1418 baselig 1
AnchorPoint: "Anchor-6" 899 -223 baselig 0
AnchorPoint: "Anchor-6" 281 -244 baselig 1
AnchorPoint: "Anchor-9" 902 1532 baselig 0
LayerCount: 2
Fore
SplineSet
490 312 m 257
 396 625 253 914 61 1172 c 257
 265 1336 l 258
 289 1356 289 1355 304 1331 c 256
 457 1086 595 773 717 391 c 257
 810 442 857 519 857 624 c 256
 857 768 829 1041 795 1327 c 257
 1032 1478 l 257
 1074 1506 1087 1512 1088 1456 c 256
 1093 1197 1100 908 1100 678 c 256
 1100 166 789 -37 254 -37 c 257
 68 211 l 258
 43 244 27 280 82 280 c 257
 256 282 391 290 490 312 c 257
EndSplineSet
LCarets2: 1 0
Ligature2: "'rlig' Required Ligatures in Arabic lookup 16 subtable" uniFEDF uniFE8E
EndChar

StartChar: uniFEFC
Encoding: 65276 65276 263
GlifName: uniF_E_F_C_
Width: 1281
GlyphClass: 3
Flags: HW
AnchorPoint: "Anchor-6" 899 -223 baselig 0
AnchorPoint: "Anchor-6" 281 -244 baselig 1
AnchorPoint: "Anchor-9" 902 1532 baselig 0
AnchorPoint: "Anchor-9" 204 1418 baselig 1
LayerCount: 2
Fore
SplineSet
717 391 m 257
 813 444 857 519 857 625 c 256
 857 741 834 979 795 1327 c 257
 1034 1479 l 257
 1076 1507 1086 1510 1087 1454 c 258
 1100 702 l 257
 1103 485 1124 369 1256 369 c 258
 1286 369 l 258
 1303 369 1311 325 1311 237 c 258
 1311 142 l 258
 1311 47 1303 0 1286 0 c 258
 1243 0 l 258
 1093 0 989 61 930 183 c 257
 789 36 564 -37 254 -37 c 257
 68 211 l 258
 43 245 27 280 82 280 c 257
 256 281 390 290 490 312 c 257
 396 625 253 914 61 1172 c 257
 265 1336 l 258
 289 1356 289 1356 304 1331 c 256
 462 1074 599 760 717 391 c 257
EndSplineSet
LCarets2: 1 0
Ligature2: "'rlig' Required Ligatures in Arabic lookup 16 subtable" uniFEE0 uniFE8E
EndChar

StartChar: arabic_dot
Encoding: 65536 -1 264
GlifName: arabic_dot
Width: 237
VWidth: 2124
GlyphClass: 2
Flags: HW
LayerCount: 2
Fore
SplineSet
116.5 291.903320312 m 5
 281.903320312 126.5 l 5
 116.5 -38.9033203125 l 5
 -48.9033203125 126.5 l 5
 116.5 291.903320312 l 5
EndSplineSet
EndChar

StartChar: arabic_2dots
Encoding: 65537 -1 265
GlifName: arabic_2dots
Width: 608
VWidth: 2086
GlyphClass: 2
Flags: HW
LayerCount: 2
Fore
SplineSet
468 279.32421875 m 5
 621.82421875 125.5 l 5
 468 -28.32421875 l 5
 314.17578125 125.5 l 5
 468 279.32421875 l 5
144 279.32421875 m 5
 297.82421875 125.5 l 5
 144 -28.32421875 l 5
 -9.82421875 125.5 l 5
 144 279.32421875 l 5
EndSplineSet
EndChar

StartChar: arabic_3dots
Encoding: 65538 -1 266
GlifName: arabic_3dots
Width: 581
GlyphClass: 2
Flags: HW
LayerCount: 2
Fore
SplineSet
295.5 490.30859375 m 5
 441.080078125 344.73046875 l 5
 295.5 199.151367188 l 5
 149.919921875 344.73046875 l 5
 295.5 490.30859375 l 5
459.580078125 246.848632812 m 5
 605.16015625 101.26953125 l 5
 459.580078125 -44.30859375 l 5
 314 101.26953125 l 5
 459.580078125 246.848632812 l 5
131.419921875 246.848632812 m 5
 277 101.26953125 l 5
 131.419921875 -44.30859375 l 5
 -14.16015625 101.26953125 l 5
 131.419921875 246.848632812 l 5
EndSplineSet
EndChar

StartChar: arabic_3dots_a
Encoding: 65539 -1 267
GlifName: arabic_3dots_a
Width: 636
GlyphClass: 2
Flags: HW
LayerCount: 2
Fore
SplineSet
317.5 -251.30859375 m 5
 171.919921875 -105.73046875 l 5
 317.5 39.8486328125 l 5
 464.080078125 -105.73046875 l 5
 317.5 -251.30859375 l 5
481.580078125 -7.8486328125 m 5
 336 137.73046875 l 5
 481.580078125 283.30859375 l 5
 627.16015625 137.73046875 l 5
 481.580078125 -7.8486328125 l 5
153.419921875 -7.8486328125 m 5
 7.83984375 137.73046875 l 5
 153.419921875 283.30859375 l 5
 299 137.73046875 l 5
 153.419921875 -7.8486328125 l 5
EndSplineSet
EndChar

StartChar: uni066E.fina
Encoding: 65540 -1 268
GlifName: uni066E_.fina
Width: 1942
GlyphClass: 2
Flags: HW
AnchorPoint: "Anchor-7" 975 -368 basechar 0
AnchorPoint: "Anchor-10" 1045 1800 basechar 0
LayerCount: 2
Fore
SplineSet
837 0 m 260
 420 0 89 110 89 484 c 260
 89 620 122 751 185 876 c 261
 313 833 l 261
 292 759 282 695 282 641 c 260
 282 415 526 366 872 366 c 260
 1251 366 1538 433 1602 666 c 257
 1729 645 l 257
 1724 609 1720 583 1720 563 c 256
 1720 434 1790 369 1929 369 c 258
 1947 369 l 258
 1964 369 1972 325 1972 237 c 258
 1972 142 l 258
 1972 47 1964 0 1947 0 c 258
 1930 0 l 258
 1743 0 1624 77 1571 232 c 257
 1421 77 1176 0 837 0 c 260
EndSplineSet
EndChar

StartChar: uni06A1.fina
Encoding: 65543 -1 269
GlifName: uni06A_1.fina
Width: 1892
GlyphClass: 2
Flags: HW
AnchorPoint: "Anchor-7" 892 -208 basechar 0
AnchorPoint: "Anchor-10" 751 1980 basechar 0
LayerCount: 2
Fore
SplineSet
1467 713 m 256
 1412 713 1315 627 1314 572 c 257
 1315 504 1442 437 1470 437 c 256
 1517 437 1626 531 1626 579 c 256
 1626 633 1532 713 1467 713 c 256
1240 374 m 257
 1178 444 1146 525 1146 615 c 257
 1147 808 1302 1016 1482 1016 c 256
 1635 1016 1793 814 1793 631 c 256
 1793 532 1756 449 1684 372 c 257
 1747 369 1792 369 1869 369 c 258
 1899 369 l 258
 1916 369 1924 325 1924 237 c 258
 1924 142 l 258
 1924 47 1916 0 1899 0 c 258
 1861 0 l 258
 1720 0 1587 21 1463 142 c 261
 1308 35 1093 0 818 0 c 256
 415 0 89 117 89 485 c 256
 89 621 122 751 185 876 c 257
 313 833 l 257
 292 759 282 695 282 641 c 256
 282 421 514 366 826 366 c 256
 1009 366 1149 368 1240 374 c 257
EndSplineSet
EndChar

StartChar: uni06A1.init
Encoding: 65544 -1 270
GlifName: uni06A_1.init
Width: 852
GlyphClass: 2
Flags: HW
AnchorPoint: "Anchor-7" 435 -364 basechar 0
AnchorPoint: "Anchor-10" 487 2022 basechar 0
LayerCount: 2
Fore
SplineSet
-9 369 m 258
 211 369 l 258
 527 369 589 398 607 502 c 261
 542 491 469 484 407 484 c 260
 215 484 127 562 127 731 c 256
 127 978 242 1203 441 1203 c 260
 687 1203 776 883 776 579 c 260
 776 174 606 0 216 0 c 258
 -9 0 l 258
 -43 0 -60 51 -60 154 c 258
 -60 224 l 258
 -60 321 -43 369 -9 369 c 258
431 758 m 260
 495 758 564 764 601 774 c 261
 568 886 505 941 421 941 c 260
 356 941 288 894 288 823 c 256
 288 767 352 758 431 758 c 260
EndSplineSet
EndChar

StartChar: uni06A1.medi
Encoding: 65545 -1 271
GlifName: uni06A_1.medi
Width: 907
GlyphClass: 2
Flags: HW
AnchorPoint: "Anchor-7" 698 -357 basechar 0
AnchorPoint: "Anchor-10" 758 1702 basechar 0
LayerCount: 2
Fore
SplineSet
-5 369 m 258
 24 369 l 258
 119 369 186 370 243 374 c 257
 181 454 159 525 159 615 c 257
 160 808 315 1016 495 1016 c 256
 648 1016 806 814 806 631 c 256
 806 532 779 459 707 372 c 257
 750 369 805 369 882 369 c 258
 912 369 l 258
 929 369 937 325 937 237 c 258
 937 142 l 258
 937 47 929 0 912 0 c 258
 874 0 l 258
 733 0 600 21 476 142 c 257
 342 21 192 0 25 0 c 258
 -5 0 l 258
 -42 0 -60 51 -60 154 c 258
 -60 224 l 258
 -60 321 -42 369 -5 369 c 258
480 713 m 256
 425 713 328 627 327 572 c 257
 328 504 455 437 483 437 c 256
 530 437 639 531 639 579 c 256
 639 633 545 713 480 713 c 256
EndSplineSet
EndChar

StartChar: uni066F.fina
Encoding: 65546 -1 272
GlifName: uni066F_.fina
Width: 1425
GlyphClass: 2
Flags: HW
AnchorPoint: "Anchor-7" 672 -763 basechar 0
AnchorPoint: "Anchor-10" 983 1187 basechar 0
LayerCount: 2
Fore
SplineSet
984 364 m 256
 1040 364 1101 364 1159 364 c 257
 1127 479 1062 548 969 548 c 256
 904 548 843 505 842 431 c 261
 842 381 901 364 984 364 c 256
667 304 m 256
 667 534 782 820 1002 820 c 256
 1203 820 1312 598 1325 370 c 257
 1430 369 l 257
 1447 369 1455 325 1455 237 c 258
 1455 142 l 258
 1455 47 1447 0 1430 0 c 258
 1320 0 l 257
 1306 -359 1071 -547 690 -547 c 256
 311 -547 86 -360 86 -3 c 256
 86 152 123 310 195 467 c 257
 335 422 l 257
 301 308 283 211 283 131 c 256
 283 -113 439 -196 699 -196 c 256
 925 -196 1126 -141 1163 0 c 257
 1040 0 l 258
 790 0 667 99 667 304 c 256
EndSplineSet
EndChar

StartChar: arabic_gaf_bar
Encoding: 65550 -1 273
GlifName: arabic_gaf_bar
Width: 788
GlyphClass: 2
Flags: HW
LayerCount: 2
Fore
SplineSet
729 2040 m 2
 713 1950 l 1
 29 1699 l 1
 50 1816 l 1
 706 2062 l 2
 725.835509418 2069.43831603 732.913546775 2062.01370061 729 2040 c 2
EndSplineSet
EndChar

StartChar: guillemotleft
Encoding: 171 171 283
GlifName: guillemotleft
Width: 922
Flags: HW
LayerCount: 2
Fore
SplineSet
440.392578125 455 m 0
 440.392578125 556.940429688 513.658203125 752.75390625 693.368164062 952.6171875 c 1
 803 833.415039062 l 1
 670.005859375 661.873046875 649.392578125 518.33203125 649.392578125 456 c 0
 649.392578125 386.7734375 667.669921875 251.553710938 802.973632812 76.560546875 c 1
 693.37109375 -42.6142578125 l 1
 513.454101562 157.426757812 440.392578125 352.90625 440.392578125 455 c 0
80.392578125 455 m 0
 80.392578125 556.940429688 153.658203125 752.75390625 333.368164062 952.6171875 c 1
 443 833.415039062 l 1
 310.005859375 661.873046875 289.392578125 518.33203125 289.392578125 456 c 0
 289.392578125 386.7734375 307.669921875 251.553710938 442.973632812 76.560546875 c 1
 333.37109375 -42.6142578125 l 1
 153.454101562 157.426757812 80.392578125 352.90625 80.392578125 455 c 0
EndSplineSet
EndChar

StartChar: guillemotright
Encoding: 187 187 284
GlifName: guillemotright
Width: 922
Flags: HW
LayerCount: 2
Fore
SplineSet
482 455 m 4
 482 352.906017194 408.938258077 157.426980451 229.02159257 -42.6142888534 c 5
 119.418945312 76.560546875 l 5
 254.72265625 251.553710938 273 386.773658302 273 456 c 4
 273 518.331880046 252.38671875 661.873046875 119.392578125 833.415039062 c 5
 229.024502135 952.616964316 l 5
 408.734024404 752.753639047 482 556.940540682 482 455 c 4
842 455 m 4
 842 352.906017194 768.938258077 157.426980451 589.02159257 -42.6142888534 c 5
 479.418945312 76.560546875 l 5
 614.72265625 251.553710938 633 386.773658302 633 456 c 4
 633 518.331880046 612.38671875 661.873046875 479.392578125 833.415039062 c 5
 589.024502135 952.616964316 l 5
 768.734024404 752.753639047 842 556.940540682 842 455 c 4
EndSplineSet
EndChar

StartChar: NameMe.304
Encoding: 65562 -1 293
GlifName: N_ameM_e.302
Width: 570
Flags: HW
LayerCount: 2
Fore
SplineSet
-5 369 m 262
 35 369 l 262
 165 369 172 422 172 598 c 260
 172 728 160 875 143 1090 c 261
 362 1231 l 261
 403 1256 415 1254 415 1205 c 262
 415 655 l 262
 415 450 402 369 544 369 c 262
 575 369 l 262
 592 369 600 325 600 237 c 262
 600 142 l 262
 600 47 592 0 575 0 c 262
 531 0 l 262
 409 0 350 54 290 163 c 261
 219 54 148 0 31 0 c 262
 -5 0 l 262
 -42 0 -60 51 -60 154 c 262
 -60 224 l 262
 -60 321 -42 369 -5 369 c 262
EndSplineSet
EndChar

StartChar: NameMe.303
Encoding: 65563 -1 294
GlifName: N_ameM_e.303
Width: 556
Flags: HW
LayerCount: 2
Fore
SplineSet
-5 369 m 262
 27 369 l 262
 177 369 186 390 186 521 c 260
 186 706 171 844 126 1244 c 261
 351 1398 l 261
 386 1424 406 1416 408 1373 c 260
 419 1093 431 766 431 533 c 260
 431 193 355 0 28 0 c 262
 -5 0 l 262
 -42 0 -60 51 -60 154 c 262
 -60 224 l 262
 -60 321 -42 369 -5 369 c 262
EndSplineSet
EndChar

StartChar: uniFDFC
Encoding: 65020 65020 296
GlifName: uniF_D_F_C_
Width: 2516
Flags: HW
LayerCount: 2
Fore
SplineSet
2244.58105469 754.978515625 m 257
 2293.92382812 700.049804688 2421.47070312 532.469726562 2421.47070312 250.376953125 c 256
 2421.47070312 -79.197265625 2203.6171875 -295.188476562 2037.8984375 -378.978515625 c 256
 1997.01855469 -399.6484375 1932.24121094 -390.293945312 1888.0078125 -365.9453125 c 258
 1786.52929688 -310.084960938 l 258
 1652.56933594 -236.345703125 1725.08300781 -222.571289062 1788.39160156 -196.502929688 c 256
 2035.39648438 -94.794921875 2244.58105469 78.142578125 2244.58105469 201.96484375 c 256
 2244.58105469 248.514648438 2177.54882812 346.26953125 2058.38085938 492.4375 c 257
 2244.58105469 754.978515625 l 257
1793.81054688 226.241210938 m 5
 1944.05175781 76 l 5
 1793.81054688 -74.2412109375 l 5
 1643.5703125 76 l 5
 1793.81054688 226.241210938 l 5
1463.01953125 226.241210938 m 5
 1613.25976562 76 l 5
 1463.01953125 -74.2412109375 l 5
 1312.77832031 76 l 5
 1463.01953125 226.241210938 l 5
1217 879 m 256
 1217 1053 1206 1221 1185 1309 c 257
 1390 1455 l 258
 1424 1479 1436 1479 1438 1431 c 256
 1441 1300 1441 1068 1441 926 c 256
 1441 739 1453 681 1585 681 c 258
 1665 681 l 258
 1739 681 1788 702 1788 763 c 256
 1788 804 1759 864 1725 925 c 257
 1855 1083 l 258
 1880 1112 1901 1123 1914 1095 c 257
 1959 1010 1981 900 1981 764 c 256
 1981 522 1874 347 1643 347 c 258
 1549 347 l 258
 1260 347 1218 538 1217 879 c 256
1063 358 m 256
 1063 -32 894 -239 567 -239 c 257
 264 -238 83 -59 83 246 c 256
 83 384 114 518 174 651 c 257
 311 610 l 257
 283 519 268 440 268 373 c 256
 268 194 379 98 555 98 c 256
 749 98 848 159 848 331 c 256
 848 560 818 867 773 1308 c 257
 970 1449 l 258
 1006 1475 1019 1480 1022 1418 c 256
 1041 1071 1063 664 1063 358 c 256
EndSplineSet
EndChar

StartChar: NameMe.306
Encoding: 65564 -1 297
GlifName: N_ameM_e.65564
Width: 523
Flags: HW
LayerCount: 2
Fore
SplineSet
358 766 m 256
 360 473 362 369 508 369 c 258
 528 369 l 258
 545 369 553 325 553 237 c 258
 553 142 l 258
 553 47 545 0 528 0 c 258
 494 0 l 258
 139 0 119 265 116 646 c 256
 114 952 94 1040 58 1190 c 257
 285 1341 l 258
 328 1370 337 1363 341 1298 c 256
 350 1153 357 979 358 766 c 256
EndSplineSet
EndChar

StartChar: NameMe.65567
Encoding: 65565 -1 298
GlifName: N_ameM_e.65565
Width: 678
Flags: HW
LayerCount: 2
Fore
SplineSet
101.66655887 -20.7668271898 m 1
 142.879282445 -39.8131104492 188.865009692 -54 246 -54 c 0
 314.892506314 -54 472 -33.5865238542 472 29 c 0
 472 57.5896152329 390.109941673 78.9614483693 363.845982884 86.5864686628 c 0
 302.456934283 104.811342466 276 138.273042199 276 182 c 0
 276 318.610455748 427.718464248 452 546 452 c 0
 573.74197627 452 605.412972328 448.307241721 636.305949164 439.709674138 c 1
 632.84946259 405.233929863 623.98750463 360.101870846 611.359606583 307.009508118 c 1
 596.016835769 308.810126698 583.816717145 310 569 310 c 0
 490.99897914 310 438.565726875 275.233422658 397.895174681 218.746544614 c 5
 517.895982183 179.493945435 l 6
 563 165 584 132.738042179 584 80 c 0
 584 -97.2189917333 428.524044918 -185 248 -185 c 0
 182.547146427 -185 116.725268012 -172.032136325 55.6859420028 -148.297972085 c 1
 101.66655887 -20.7668271898 l 1
EndSplineSet
EndChar

StartChar: uni060D
Encoding: 1549 1549 299
Width: 828
VWidth: 4036
Flags: HW
LayerCount: 2
Fore
SplineSet
556.780273438 1458.1484375 m 5
 776.4453125 1392.09472656 l 1
 223.374023438 -220.399414062 l 5
 3.708984375 -154.345703125 l 5
 556.780273438 1458.1484375 l 5
EndSplineSet
EndChar

StartChar: NameMe.65541
Encoding: 65541 -1 300
Width: 592
Flags: HW
AnchorPoint: "Anchor-7" 351 -250 basechar 0
AnchorPoint: "Anchor-10" 323 1271 basechar 0
LayerCount: 2
Fore
SplineSet
-5 0 m 258
 -42 0 -60 51 -60 154 c 258
 -60 224 l 258
 -60 321 -42 369 -5 369 c 258
 102 369 l 258
 210 369 306 382 306 448 c 256
 306 501 259 604 212 709 c 257
 364 903 l 258
 389 935 396 937 417 902 c 256
 484 791 519 662 519 517 c 256
 519 220 365 0 82 0 c 258
 -5 0 l 258
EndSplineSet
EndChar

StartChar: NameMe.65542
Encoding: 65542 -1 301
Width: 688
Flags: HW
AnchorPoint: "Anchor-7" 361 -209 basechar 0
AnchorPoint: "Anchor-10" 387 1169 basechar 0
LayerCount: 2
Fore
SplineSet
-5 0 m 262
 -42 0 -60 51 -60 154 c 262
 -60 224 l 262
 -60 321 -42 369 -5 369 c 262
 101 369 l 262
 232 369 303 419 314 521 c 262
 331 681 l 261
 480 681 l 261
 498 524 l 261
 511 420 556 369 674 369 c 262
 693 369 l 262
 710 369 718 325 718 237 c 262
 718 142 l 262
 718 47 710 0 693 0 c 262
 672 0 l 262
 539 0 467 54 400 164 c 261
 327 54 221 0 96 0 c 262
 -5 0 l 262
EndSplineSet
EndChar

StartChar: uniFBFD.compact
Encoding: 65575 -1 321
Width: 1361
Flags: HW
AnchorPoint: "Anchor-7" 718.902 -698.086 basechar 0
AnchorPoint: "Anchor-10" 680 695 basechar 0
LayerCount: 2
Fore
SplineSet
702 -202 m 256
 969 -202 1160 -113 1160 -58 c 256
 1160 -23 1020 3 867 19 c 261
 827 24 813 44 823 77 c 262
 909 369 l 261
 1366 369 l 258
 1383 369 1391 325 1391 237 c 258
 1391 142 l 258
 1391 47 1383 0 1366 0 c 258
 1314 0 l 257
 1334 -26 1343 -59 1343 -101 c 256
 1343 -390 1006 -548 687 -548 c 257
 316 -548 91 -355 91 -3 c 256
 91 153 129 310 201 467 c 257
 342 422 l 257
 307 308 290 210 290 131 c 256
 290 -111 456 -202 702 -202 c 256
EndSplineSet
EndChar

StartChar: uniFD3E
Encoding: 64830 64830 326
Width: 1481
Flags: HW
LayerCount: 2
Fore
SplineSet
724 676 m 256
 724 645 747 620 779 620 c 256
 812 620 835 645 835 676 c 256
 835 708 812 732 779 732 c 256
 747 732 724 707 724 676 c 256
739 205 m 256
 777 41 856 -90 963 -212 c 257
 907 -76 851 90 835 208 c 256
 832 231 840 250 856 266 c 258
 898 308 l 258
 913 322 931 330 951 330 c 258
 1123 330 l 257
 1123 1025 l 257
 951 1025 l 257
 926 1026 911 1034 898 1047 c 258
 853 1092 l 258
 837 1108 829 1128 832 1150 c 256
 851 1292 912 1481 977 1631 c 257
 855 1499 769 1349 728 1140 c 256
 725 1125 719 1112 708 1101 c 258
 654 1047 l 258
 639 1033 622 1025 601 1025 c 258
 428 1025 l 257
 428 853 l 258
 428 832 420 814 406 800 c 258
 284 678 l 257
 406 555 l 258
 420 541 428 523 428 503 c 258
 428 330 l 257
 601 330 l 257
 623 329 640 322 654 308 c 258
 719 243 l 258
 729 233 735 220 739 205 c 256
981 677 m 256
 981 564 890 473 777 473 c 256
 665 473 573 565 573 677 c 256
 573 786 665 881 777 881 c 256
 891 881 981 790 981 677 c 256
1281 1808 m 257
 1126 1667 1031 1437 985 1179 c 257
 989 1175 l 257
 1198 1175 l 258
 1239 1175 1273 1141 1273 1100 c 258
 1273 255 l 258
 1273 221 1241 181 1198 181 c 258
 993 181 l 257
 989 176 l 257
 1042 -95 1139 -285 1273 -393 c 256
 1335 -442 1276 -491 1213 -525 c 257
 889 -429 684 -206 598 153 c 257
 570 181 l 257
 353 181 l 257
 316 181 279 215 279 255 c 258
 279 472 l 257
 125 625 l 258
 108 643 99 660 99 678 c 256
 99 696 108 713 125 730 c 258
 279 883 l 257
 279 1100 l 257
 278 1138 314 1175 353 1175 c 258
 570 1175 l 257
 586 1191 l 257
 667 1587 873 1834 1205 1931 c 257
 1278 1953 1294 1873 1281 1808 c 257
EndSplineSet
EndChar

StartChar: uniFD3F
Encoding: 64831 64831 327
Width: 1481
Flags: HW
LayerCount: 2
Fore
SplineSet
193 1808 m 257
 181 1873 195 1953 269 1931 c 257
 601 1834 808 1587 889 1191 c 257
 905 1175 l 257
 1122 1175 l 258
 1161 1175 1196 1138 1196 1100 c 257
 1196 883 l 257
 1349 730 l 258
 1367 713 1375 696 1375 678 c 256
 1375 660 1367 643 1349 625 c 258
 1196 472 l 257
 1196 255 l 258
 1196 215 1159 181 1122 181 c 257
 905 181 l 257
 877 153 l 257
 790 -206 586 -429 262 -525 c 257
 199 -491 140 -442 201 -393 c 256
 334 -285 431 -95 484 177 c 257
 481 181 l 257
 277 181 l 258
 233 181 202 221 202 255 c 258
 202 1100 l 258
 202 1141 236 1175 277 1175 c 258
 486 1175 l 257
 489 1178 l 257
 443 1436 348 1668 193 1808 c 257
491 677 m 256
 491 789 582 881 695 881 c 256
 807 881 899 786 899 677 c 256
 899 565 807 473 695 473 c 256
 582 473 491 564 491 677 c 256
735 205 m 256
 739 220 746 233 756 243 c 258
 821 308 l 258
 835 322 852 329 874 330 c 257
 1047 330 l 257
 1047 503 l 258
 1047 523 1053 541 1068 555 c 258
 1190 678 l 257
 1068 800 l 258
 1053 814 1047 832 1047 853 c 258
 1047 1025 l 257
 874 1025 l 258
 853 1025 835 1033 821 1047 c 258
 767 1101 l 258
 756 1112 750 1125 747 1140 c 256
 705 1349 620 1499 497 1631 c 257
 563 1481 624 1292 643 1150 c 257
 645 1128 638 1108 621 1092 c 258
 577 1047 l 258
 563 1034 549 1026 524 1025 c 257
 351 1025 l 257
 351 330 l 257
 524 330 l 258
 544 330 562 322 577 308 c 258
 618 266 l 258
 635 250 642 231 639 208 c 256
 623 90 568 -76 511 -212 c 257
 619 -90 698 41 735 205 c 256
752 676 m 256
 752 707 730 732 697 732 c 256
 664 732 641 708 641 676 c 256
 641 645 664 620 697 620 c 256
 730 620 752 645 752 676 c 256
EndSplineSet
EndChar
